<svg width="324" height="95" viewBox="0 0 324 95" fill="none" xmlns="http://www.w3.org/2000/svg">
<path d="M34.4118 1.57641C26.7609 3.56775 17.6426 9.33217 11.983 15.6206C-6.67274 36.3725 -3.10929 70.0157 19.634 85.6321C29.3811 92.4446 41.8532 96.008 51.181 94.7503L56.3166 94.0167V57.9629V21.9091H50.0281C44.2637 21.9091 43.7397 22.1187 42.2724 24.9485C41.2243 26.835 38.9185 28.7216 35.8791 29.8745C31.2676 31.8658 31.1628 31.9706 31.1628 36.7917V41.8225H35.3551H39.5474V60.1638C39.5474 72.1119 39.1282 78.5052 38.4993 78.5052C36.2984 78.5052 28.9618 74.208 25.0839 70.6446C17.7474 64.0417 13.8695 52.4081 15.5465 41.9273C19.4243 16.8783 51.0762 6.29275 69.2079 23.7956C77.4877 31.761 81.3656 45.2812 78.431 56.1811C76.6493 62.5744 70.9897 70.1206 64.9108 74.3129L59.4608 77.8763V85.6321C59.4608 94.5407 59.2512 94.4359 70.3608 88.6715C87.3396 79.658 97.2964 59.8494 94.3617 40.8792C90.5887 16.6687 70.9897 -0.310126 46.8839 0.00429689C43.1108 0.00429689 37.556 0.73795 34.4118 1.57641Z" fill="#44C3D2"/>
<path d="M134.537 85.2236C114.212 85.2236 98.3151 68.7227 98.3151 47.4928C98.3151 26.3636 114.212 9.96335 134.537 9.96335C153.553 9.96335 168.444 22.6409 170.959 41.1541H154.76C153.05 30.7907 145.001 23.647 134.738 23.647C122.362 23.647 114.011 33.4067 114.011 47.4928C114.011 61.6796 122.362 71.5399 134.738 71.5399C145.001 71.5399 152.949 64.2956 154.76 53.9322H170.959C168.444 72.6467 153.553 85.2236 134.537 85.2236Z" fill="#1D4165"/>
<path d="M189.486 83.7143H175.4V11.4726H189.486V83.7143Z" fill="#1D4165"/>
<path d="M213.196 17.5095C213.196 22.2384 209.372 25.7599 203.838 25.7599C198.405 25.7599 194.582 22.2384 194.582 17.5095C194.582 12.5794 198.405 9.05781 203.838 9.05781C209.372 9.05781 213.196 12.5794 213.196 17.5095ZM210.982 83.7143H196.997V29.9858H210.982V83.7143Z" fill="#1D4165"/>
<path d="M241.035 84.7205C225.541 84.7205 214.875 73.2503 214.875 56.8501C214.875 40.7516 225.943 28.9796 241.035 28.9796C255.021 28.9796 265.384 38.4375 267.095 52.9261H252.405C251.701 45.7824 247.374 41.3553 241.035 41.3553C233.791 41.3553 229.163 47.2916 229.163 56.8501C229.163 66.5091 233.691 72.3448 241.035 72.3448C247.475 72.3448 251.6 68.119 252.405 60.7741H267.095C265.485 75.5645 255.423 84.7205 241.035 84.7205Z" fill="#1D4165"/>
<path d="M285.029 83.7143H271.043V11.4726H285.029V52.7248L304.649 29.9858H320.747L298.511 55.7433L323.363 83.7143H305.554L285.029 58.7618V83.7143Z" fill="#1D4165"/>
</svg>
