<svg width="208" height="208" viewBox="0 0 208 208" fill="none" xmlns="http://www.w3.org/2000/svg">
<g clip-path="url(#clip0_260_457)">
<rect width="208" height="208" fill="#254162"/>
<path fill-rule="evenodd" clip-rule="evenodd" d="M104 171.906C141.302 171.906 171.542 141.666 171.542 104.364C171.542 67.0619 141.302 36.8227 104 36.8227C66.6978 36.8227 36.4585 67.0619 36.4585 104.364C36.4585 141.666 66.6978 171.906 104 171.906ZM104 166.573C138.357 166.573 166.209 138.721 166.209 104.364C166.209 70.0068 138.357 42.1547 104 42.1547C69.6426 42.1547 41.7905 70.0068 41.7905 104.364C41.7905 138.721 69.6426 166.573 104 166.573Z" fill="white" fill-opacity="0.16"/>
<path d="M24.1062 157.265C23.4599 157.358 22.8136 157.635 22.6289 157.773C22.2596 158.143 23.8292 165.668 24.5217 167.006C24.9372 167.745 25.6759 167.93 29.5076 168.114C35.8323 168.437 37.9559 169.453 42.2955 174.116L45.6656 177.763L50.1437 175.824C53.3291 174.439 54.5756 173.7 54.5756 173.1C54.5756 171.854 50.9285 167.191 47.743 164.283C44.5115 161.374 40.4027 159.158 36.4786 158.143C33.6164 157.404 25.999 156.85 24.1062 157.265ZM38.1406 160.774C43.2188 162.667 47.8354 166.314 51.3901 171.346L52.3134 172.639L49.2665 174.023L46.1734 175.408L45.2039 174.162C41.3722 169.084 36.7095 166.406 30.1539 165.575L25.9529 165.067L25.5374 163.405C25.3065 162.528 24.9834 161.189 24.7987 160.451L24.5217 159.112L29.7385 159.343C33.7549 159.574 35.6938 159.897 38.1406 160.774Z" fill="white" fill-opacity="0.16"/>
<path d="M7.94835 160.82C2.63931 163.082 -2.02342 166.314 -6.13216 170.515C-13.888 178.501 -16.8888 186.534 -16.3809 198.03C-16.1501 203.939 -15.4576 207.217 -13.5648 211.972C-9.54842 221.897 -0.68462 230.068 10.6721 234.362C13.5344 235.424 13.7191 235.424 14.273 234.685C14.8732 233.854 15.104 226.468 14.5962 224.575C14.4577 223.975 13.0266 222.959 10.8106 221.805C-2.53124 215.018 -8.20961 197.845 -1.56177 184.411C1.11584 179.009 6.24022 174.116 12.1956 171.207C15.2425 169.73 15.5657 168.622 14.1345 164.052C13.0266 160.589 12.3341 159.204 11.6878 159.297C11.5493 159.297 9.84114 159.989 7.94835 160.82ZM12.1494 164.606L12.9342 167.145L10.349 168.437C2.26998 172.5 -4.37787 180.533 -6.63998 188.796C-7.88646 193.367 -7.79412 200.984 -6.40916 205.416C-4.65486 211.187 -2.39275 214.926 1.71599 219.081C4.71676 222.082 6.24022 223.236 9.24099 224.621C12.9342 226.375 12.9804 226.468 13.0266 228.083C13.0266 230.669 12.5187 232.654 11.8263 232.654C10.4413 232.654 1.94682 227.806 -1.19244 225.267C-15.2268 213.587 -18.7815 193.413 -9.54842 177.855C-7.5633 174.531 -2.34658 169.222 1.439 166.683C4.48593 164.606 10.8106 161.466 11.1338 161.836C11.2723 161.974 11.7339 163.174 12.1494 164.606Z" fill="white" fill-opacity="0.16"/>
<path d="M19.1667 176.101C6.60966 178.917 -0.453681 192.12 4.02438 204.493C5.22469 207.817 6.79432 210.217 9.65659 212.849C16.3044 218.989 24.7989 221.205 32.5547 218.804C46.9584 214.372 52.4983 194.198 42.3419 183.303C39.3873 180.117 37.356 178.871 32.8317 177.301C27.9382 175.593 23.137 175.178 19.1667 176.101ZM33.0164 179.702C39.0641 182.564 42.8497 187.504 44.0038 194.059C45.7581 204.354 38.2331 214.511 27.2919 216.542C19.1667 218.019 10.6261 213.449 6.70199 205.508C4.99386 202.092 4.9477 201.861 4.9477 197.152C4.99386 193.136 5.17852 191.751 6.05567 189.581C7.48681 185.98 10.3952 182.472 13.4883 180.579C17.4586 178.224 19.5822 177.717 24.8451 177.855C29.0923 177.994 29.831 178.178 33.0164 179.702Z" fill="white" fill-opacity="0.16"/>
<path d="M15.104 183.995C13.0266 185.057 12.1032 186.488 12.1032 188.658C12.1032 191.52 13.5344 192.997 16.6275 193.321C18.8896 193.505 19.1204 193.413 20.6439 191.889C21.9827 190.551 22.2597 189.95 22.2597 188.335C22.2597 186.765 21.9827 186.119 20.69 184.826C18.9358 183.072 17.32 182.841 15.104 183.995ZM19.6282 186.396C20.7362 187.365 20.5977 189.119 19.2589 190.412C17.9663 191.751 16.4428 191.889 14.9655 190.828C12.9804 189.443 14.2269 186.026 16.9506 185.472C18.0124 185.242 18.4279 185.38 19.6282 186.396Z" fill="white" fill-opacity="0.16"/>
<path d="M22.9983 194.983C14.8732 202.923 12.0109 205.97 12.2417 206.524C12.4264 206.94 12.7496 207.263 13.0727 207.263C13.8114 207.263 35.6477 185.519 35.6477 184.78C35.6477 183.072 33.0624 185.149 22.9983 194.983Z" fill="white" fill-opacity="0.16"/>
<path d="M29.6463 197.152C26.5532 198.399 25.3067 201.353 26.6455 204.216C28.0305 207.124 30.9389 208.001 33.6166 206.385C38.3716 203.477 34.7707 195.167 29.6463 197.152ZM33.0626 199.83C34.2629 201.123 33.8474 203.477 32.3239 204.631L31.0313 205.601L29.7848 204.631C28.0305 203.339 27.7535 200.753 29.277 199.691C30.662 198.722 32.0931 198.768 33.0626 199.83Z" fill="white" fill-opacity="0.16"/>
<path d="M57.2532 182.333C55.0373 183.21 53.0983 184.088 52.9598 184.272C52.7752 184.411 53.1907 186.073 53.8832 187.919C55.3605 192.028 55.8221 197.383 55.0835 201.354C54.2063 205.97 50.9747 212.064 47.42 215.942C43.7267 219.912 38.51 223.467 34.6783 224.621C31.6775 225.544 31.816 225.314 31.0312 230.346C30.2464 235.47 30.3387 235.793 32.2776 236.162C36.1094 236.901 44.927 233.762 51.2055 229.515C60.7618 223.005 66.6249 211.048 66.6249 197.891C66.6249 188.889 65.1937 182.98 62.747 181.549L61.2697 180.718L57.2532 182.333ZM61.6851 185.426C63.7626 192.028 64.0858 200.246 62.4238 206.57C59.0537 219.727 49.1743 229.838 36.571 233.069C34.6783 233.531 32.9701 233.854 32.8316 233.762C32.6931 233.716 32.7855 232.192 33.0163 230.392L33.4779 227.206L36.0632 226.237C46.2197 222.544 54.3448 213.264 56.6993 202.739C57.7149 198.214 57.3917 191.428 56.0529 187.919C55.499 186.534 55.0835 185.38 55.1758 185.334C58.4536 183.949 59.977 183.349 60.4387 183.303C60.7157 183.257 61.2697 184.226 61.6851 185.426Z" fill="white" fill-opacity="0.16"/>
<path d="M20.619 -3.01224C18.8171 -3.54124 17.0138 -3.99117 16.588 -4.06171C15.5699 -4.18191 14.1972 -3.44619 13.5236 -2.43757C12.7031 -1.16257 6.01523 17.2122 4.32986 22.8218C2.69436 28.29 2.5645 29.4107 3.57219 31.0649C4.47859 32.6303 5.11396 32.9338 14.293 36.3013L22.9297 39.4776L23.0424 40.2862C23.1524 41.2528 23.3647 41.3276 24.9818 41.1022L26.2424 40.9102L26.9557 41.7449C27.5996 42.4755 27.6288 42.6183 27.2865 43.2135C25.9907 45.461 25.9741 45.5081 26.5429 46.0003C27.5641 46.8639 29.4022 47.5912 30.5173 47.5865C31.4743 47.5791 31.6102 47.4945 32.22 46.5164C33.1236 45.0056 33.7215 45.1898 34.3285 47.1534L34.7855 48.64L35.8063 48.6021C38.5926 48.4441 39.6435 47.5685 39.5192 45.5893C39.4507 44.5048 39.4923 44.3868 40.0607 43.9774C40.4697 43.6444 40.779 43.5943 41.0995 43.8133C43.0238 45.0482 43.1028 45.0495 43.8209 44.2157C45.3125 42.5409 45.5993 41.9527 45.4089 41.0637C45.3074 40.5243 44.9285 40.0196 44.3583 39.6065C43.6008 39.0479 43.5327 38.8649 43.7322 38.2989C43.915 37.7801 44.2672 37.5331 45.3087 37.2108C46.0325 36.9622 46.7189 36.5944 46.802 36.3585C46.935 35.9812 46.657 34.6637 46.0473 32.8582C45.8515 32.2855 45.8279 32.2772 44.3966 32.2764C42.9971 32.2604 42.9264 32.2355 42.6279 31.6531C42.3669 31.19 42.4139 30.7558 42.8211 29.6003C43.1536 28.657 43.2601 27.9788 43.1213 27.7708C42.8214 27.2674 40.2867 25.6583 39.8041 25.6738C39.6141 25.6864 39.0526 26.1513 38.584 26.7285C37.7606 27.7108 37.6331 27.7719 36.8063 27.5601L35.9324 27.3316L39.0075 18.6062C42.3818 9.03189 42.6545 7.88197 42.0102 6.24981C41.2284 4.33062 40.5542 3.98696 31.7677 0.784322C27.4452 -0.792062 22.4292 -2.50683 20.619 -3.01224ZM39.4923 5.04431C40.827 6.07143 40.7663 6.84539 38.9712 11.9391C38.1235 14.3445 36.7146 18.1163 35.8308 20.3234L34.2515 24.3532L32.9881 24.7033C32.3127 24.8895 31.6623 25.0049 31.568 24.9716C31.4972 24.9467 32.0402 23.2557 32.8104 21.2207L34.2095 17.5516L29.611 15.9309L25.0125 14.3103L23.6412 18.2013L22.2699 22.0924L26.3718 23.6176L30.4738 25.1427L30.5826 26.6392L30.6832 28.1593L29.8306 28.9988L28.9697 29.8618L27.7057 28.8597C26.9093 28.2609 26.3141 27.9185 26.1228 28.0102C25.8357 28.1476 23.7871 30.9516 23.6126 31.4468C23.5627 31.5883 23.9027 32.0528 24.3773 32.5117L25.2098 33.3088L22.4271 32.3281L19.6361 31.371L20.8455 28.1652L22.0548 24.9593L25.176 26.0328C26.8739 26.6312 28.3845 27.084 28.4885 27.0146C28.6161 26.9536 28.7227 26.726 28.7032 26.4806C28.6933 26.1324 28.1912 25.9024 25.0853 24.8609L21.4759 23.6683L21.1502 24.2163C20.9631 24.5216 20.251 26.3915 19.6084 28.3654L18.4076 31.9984L22.1335 33.3116C25.3407 34.4419 25.8901 34.6885 25.8916 35.0602C25.9113 35.7564 25.8392 35.8106 24.4164 36.237L23.0338 36.6246L14.0753 33.3083C8.13394 31.1349 4.95305 29.8548 4.68939 29.5498C3.72637 28.5211 3.78725 28.1979 6.37851 20.0178C8.07644 14.5982 9.6306 10.1883 11.6227 5.1375C14.6497 -2.62393 14.8368 -2.92915 16.2765 -2.952C18.2542 -2.99729 37.7829 3.72609 39.4923 5.04431ZM31.777 21.0686L30.6966 24.1343L27.1593 22.8877L23.622 21.641L24.6941 18.5989L25.7662 15.5568L29.3118 16.7799L32.8574 18.0029L31.777 21.0686ZM41.3126 27.6371L42.2741 28.294L41.6977 29.6286C41.1296 30.9395 41.1283 31.0186 41.7016 32.175L42.2903 33.3634L43.5399 33.3531C44.2514 33.3653 44.8839 33.3761 44.9782 33.4093C45.0725 33.4426 45.2919 34.0236 45.4628 34.6671L45.7505 35.8819L45.0987 36.0764C43.4221 36.5459 43.3098 36.6389 42.6364 38.0983L41.9713 39.5341L43.0453 40.5489C43.6447 41.1048 44.1332 41.6746 44.1707 41.7939C44.2082 41.9131 43.9712 42.3598 43.6482 42.7497C43.0979 43.4837 43.0744 43.4754 41.7066 42.9933L40.3152 42.503L39.0909 43.344L37.8583 44.2087L37.8035 45.5679C37.7983 46.3349 37.739 47.0298 37.714 47.1005C37.6808 47.1949 37.1885 47.313 36.6018 47.3979L35.5159 47.5454L35.1353 46.2182L34.7782 44.8994L33.1733 44.4133L31.5683 43.9272L30.5731 45.2467L29.5779 46.5661L28.6692 46.0603C27.4234 45.3827 27.4025 45.2162 28.1924 43.8774C28.9907 42.5151 28.9393 42.2849 27.596 40.8306L26.7107 39.8823L25.4126 39.955L24.1144 40.0277L23.9696 38.7837C23.8861 38.118 23.8484 37.548 23.9038 37.541C23.9593 37.534 24.6194 37.316 25.3835 37.0285C26.9186 36.5091 26.8119 36.7366 27.1462 33.8322C27.1849 33.4216 26.9143 33.0611 26.0554 32.4138C24.9233 31.5641 24.8928 31.5003 25.2988 30.8746C26.2912 29.2625 26.3869 29.2167 27.3387 29.9763C28.8205 31.1879 29.066 31.1683 30.5522 29.8098L31.8859 28.5831L31.7869 27.4348L31.6962 26.2628L32.5712 25.9615C33.7804 25.5393 33.9525 25.6529 34.1541 26.8109C34.232 27.3421 34.3973 27.851 34.5222 27.9481C34.6235 28.0368 35.496 28.3443 36.4407 28.5977L38.1482 29.0934L38.9979 27.9613C39.4595 27.3286 39.9655 26.8707 40.0834 26.9122C40.2249 26.9621 40.7729 27.2878 41.3126 27.6371Z" fill="white" fill-opacity="0.16"/>
<path d="M16.4732 -0.125499C16.2097 0.0202525 15.74 1.12726 15.0392 3.26628L13.9963 6.45122L23.8732 10.1707C29.3345 12.2015 33.9636 13.8859 34.1855 13.8581C34.5336 13.8482 34.7636 13.346 35.7637 10.358L36.9229 6.84295L26.9019 3.23173C18.5468 0.234163 16.8087 -0.325374 16.4732 -0.125499ZM34.733 10.0478L33.8188 12.6419L32.2388 12.085C31.3427 11.7692 27.2088 10.2593 22.9959 8.74807L15.3484 5.99983L16.246 3.45296L17.1352 0.929676L26.403 4.19589L35.6472 7.4538L34.733 10.0478Z" fill="white" fill-opacity="0.16"/>
<path d="M12.8717 9.79287C12.4571 9.99139 9.9487 17.4849 10.1472 17.8995C10.4068 18.4417 19.1322 21.5168 19.4233 21.1421C19.5439 21.0256 20.2795 19.164 21.0594 17.0263L22.5015 13.1602L17.7864 11.4189C15.2007 10.4811 12.9909 9.75537 12.8717 9.79287ZM21.1384 13.7932C21.144 13.9278 20.6453 15.3427 20.0164 16.9768L18.8819 19.9704L15.1559 18.6573L11.4299 17.3441L12.3439 14.2993C12.8549 12.6237 13.33 11.2004 13.4423 11.1074C13.6669 10.9215 21.1272 13.5242 21.1384 13.7932Z" fill="white" fill-opacity="0.16"/>
<path d="M16.0867 13.2325C15.9494 13.3962 15.8012 13.7416 15.7653 13.994C15.6878 14.3644 15.4811 14.4241 14.8112 14.2941C14.1412 14.164 13.9027 14.239 13.778 14.5927C13.645 14.97 13.7769 15.1225 14.4372 15.3553C15.1918 15.6212 15.2376 15.7169 15.059 16.4493C14.7794 17.5437 15.5672 17.7153 16.0439 16.6638C16.3639 15.9813 16.4513 15.959 17.3959 16.2124C18.0965 16.4063 18.4529 16.3728 18.536 16.137C18.6191 15.9012 18.3624 15.6517 17.6951 15.3635C16.8004 14.9686 16.7462 14.8965 16.9248 14.1641C17.1367 13.3374 16.5705 12.6872 16.0867 13.2325Z" fill="white" fill-opacity="0.16"/>
<path d="M9.46401 19.4615C9.33644 19.5226 8.60913 21.3607 7.84452 23.5302L6.45658 27.4685L7.83692 28.1405C8.58188 28.5091 10.7043 29.2571 12.5298 29.7944L15.8423 30.7762L16.6888 28.9007C17.1253 27.888 17.8207 26.0652 18.1808 24.8931L18.858 22.7457L14.2609 21.046C11.7459 20.1332 9.58328 19.424 9.46401 19.4615ZM17.5338 23.419C17.563 23.5619 17.0407 24.9685 16.3882 26.5943L15.1912 29.5394L11.4417 28.2179L7.71569 26.9048L8.77949 23.8863C9.36957 22.2119 9.94729 20.7984 10.0665 20.7608C10.3619 20.5998 17.4754 23.1333 17.5338 23.419Z" fill="white" fill-opacity="0.16"/>
<path d="M13.4938 23.8245L12.6562 24.2451L12.2731 23.5268C11.5457 22.1305 10.661 22.5345 11.301 23.9531L11.7203 24.8696L10.8828 25.2903C10.0605 25.7428 9.80559 26.3157 10.348 26.5069C10.513 26.5651 10.9818 26.4386 11.4047 26.2165L12.1466 25.8417L12.5782 26.4975C12.7934 26.865 13.143 27.2268 13.3081 27.285C13.8033 27.4595 14.0248 26.5302 13.5822 26.056C13.0854 25.5098 13.2253 25.188 14.1031 24.7285C14.7256 24.3912 14.7825 24.3051 14.5839 23.8905C14.3854 23.4759 14.2592 23.4579 13.4938 23.8245Z" fill="white" fill-opacity="0.16"/>
<path d="M26.5191 18.6854C26.2112 18.6564 25.9574 18.6995 25.9242 18.7938C25.9062 18.92 25.848 19.0851 25.7982 19.2266C25.7483 19.3681 26.5404 19.7533 27.7195 20.1689C29.5354 20.8088 29.7406 20.8281 29.8819 20.4272C30.0232 20.0263 29.8359 19.8808 28.5402 19.3446C27.7232 19.0302 26.8035 18.706 26.5191 18.6854Z" fill="white" fill-opacity="0.16"/>
<path d="M34.8171 30.1198C33.7033 30.0454 31.5692 30.9105 30.5405 31.8735C29.3274 32.9836 28.3634 35.7192 28.6041 37.3682C28.9393 39.5011 30.753 41.6515 32.8754 42.3995C34.8799 43.1059 37.6757 42.3945 39.2686 40.8085C41.5463 38.4829 41.6846 34.555 39.542 32.2092C38.8052 31.3663 38.3279 31.0655 37.1169 30.6652C36.2916 30.3744 35.236 30.1349 34.8171 30.1198ZM38.7728 33.2636C39.1766 33.6976 39.6749 34.6155 39.8846 35.2992C40.5931 37.8023 38.7152 40.799 36.0234 41.441C34.8959 41.7065 34.5089 41.6761 33.5046 41.2161C32.0285 40.5899 30.96 39.2589 30.5542 37.5517C30.2791 36.5269 30.3261 36.0927 30.7915 34.7721C31.2569 33.4515 31.4925 33.0839 32.3577 32.4344C34.2405 31.0036 36.9785 31.3588 38.7728 33.2636Z" fill="white" fill-opacity="0.16"/>
<path d="M230.258 162.752C227.276 154.367 218.042 146.411 209.176 144.406C198.594 142.05 197.234 143.427 198.137 155.763C199.301 171.645 199.675 173.837 201.078 174.565C202.224 175.189 226.644 174.063 230.698 173.227C232.124 172.932 232.316 172.345 231.893 169.536C231.687 167.779 230.961 164.642 230.258 162.752ZM216.93 170.981C210.379 171.472 204.788 171.686 204.441 171.523C203.792 171.031 202.545 149.061 203.092 147.54C203.535 146.274 211.002 147.942 215.149 150.217C221.318 153.562 226.726 160.428 228.103 166.718L228.815 170.171L216.93 170.981Z" fill="white" fill-opacity="0.16"/>
<path d="M225.87 182.441C225.187 181.408 222.959 180.85 217.529 180.327C213.393 180.007 207.166 179.414 203.571 179.06L197.119 178.513L194.549 168.713C191.333 156.541 189.883 152.927 187.544 151.453C185.823 150.321 185.432 150.324 181.865 151.999C169.154 157.909 161.517 170.207 161.963 184.124C162.428 201.168 178.706 215.575 196.379 214.745C209.874 214.152 222.349 204.064 225.86 190.739C227.359 185.108 227.326 184.567 225.87 182.441ZM221.428 193.532C219.355 198.655 216.49 202.221 211.328 206.025C208.006 208.511 206.491 209.136 200.336 210.407C193.805 211.754 192.708 211.746 187.754 210.499C181.145 208.81 174.775 204.49 170.758 199.058C168.182 195.676 167.662 194.296 166.299 187.691C164.92 181.01 164.882 179.687 165.909 175.562C168.142 167.04 175.08 158.565 182.412 155.408L184.646 154.477L186.07 158.723C186.791 161.079 188.739 167.485 190.261 172.963C191.857 178.425 193.449 183.105 193.812 183.343C194.174 183.582 201.048 184.276 209.004 184.904C225.456 186.126 224.732 185.65 221.428 193.532Z" fill="white" fill-opacity="0.16"/>
<path d="M156.217 -20.8401C155.334 -19.3317 154.561 -18.0439 154.488 -17.9336C154.414 -17.86 153.494 -18.743 152.427 -19.8835C151.066 -21.392 150.146 -22.0543 149.263 -22.2382L148.049 -22.459L148.307 1.89743L148.601 26.2171H145.032C141.132 26.2171 141.243 26.1067 141.463 28.9765C141.684 31.6255 144.664 34.9 147.681 35.783C150.441 36.5925 158.093 36.9604 170.014 36.7764C183.59 36.5925 185.062 36.3717 188.484 34.1274C190.912 32.5085 192.457 29.9331 192.972 26.6218C193.892 20.8454 194.407 -1.2299 193.892 -14.2911C193.635 -20.2883 193.635 -20.3618 192.568 -21.6128L191.538 -22.8637L188.925 -20.325L186.35 -17.7496L185.356 -18.8534C184.805 -19.4788 183.958 -20.4722 183.443 -21.0977C182.928 -21.7231 181.935 -22.4958 181.236 -22.8637L179.948 -23.4892L177.189 -20.4722L174.429 -17.4553L172.774 -19.5156C170.75 -22.0175 168.947 -22.8637 168.027 -21.7231C167.696 -21.3552 166.85 -20.2883 166.077 -19.4052L164.753 -17.7864L163.686 -19.0741C161.294 -21.9807 160.043 -23.0845 158.94 -23.3052C157.799 -23.526 157.726 -23.4524 156.217 -20.8401ZM161.184 -18.3015C163.392 -15.7996 165.01 -14.659 165.047 -15.6524C165.047 -15.7996 165.967 -16.9034 167.034 -18.1175L169.021 -20.325L171.118 -18.0071C174.282 -14.5119 174.098 -14.5119 177.225 -18.0439C178.697 -19.6996 179.985 -21.0609 180.132 -21.0609C180.242 -21.0609 181.456 -19.81 182.855 -18.3015C184.253 -16.793 185.614 -15.5053 185.872 -15.4317C186.129 -15.3581 187.233 -16.2411 188.263 -17.3449C189.33 -18.4854 190.323 -19.4052 190.471 -19.4052C190.875 -19.4052 190.838 22.5378 190.471 25.5548C190.176 28.0935 188.962 29.5652 186.497 30.485C185.172 31.0001 184.621 31.0368 183.48 30.7057C182.229 30.301 179.396 27.9463 179.396 27.3208C179.396 27.1737 178.844 26.8057 178.219 26.5482C177.262 26.1435 174.172 26.0331 163.723 26.0331H150.404L150.183 15.7313C150.073 10.0653 149.889 -0.199722 149.778 -7.07986L149.558 -19.5892L151.728 -17.3081C152.906 -16.0204 154.046 -14.9902 154.267 -14.9902C154.525 -14.9902 155.481 -16.3883 156.475 -18.1175C157.431 -19.8467 158.314 -21.2449 158.425 -21.2449C158.535 -21.2449 159.786 -19.9203 161.184 -18.3015ZM172.295 27.6152L176.416 27.6888L177.115 29.3076C177.998 31.2208 179.69 32.5821 182.156 33.318L183.995 33.833L181.972 34.2378C176.048 35.4519 155.334 35.7094 149.852 34.6425C146.173 33.9802 143.524 31.7727 143.082 29.0501L142.861 27.6888L152.391 27.6152C161.589 27.5048 163.318 27.5048 172.295 27.6152Z" fill="white" fill-opacity="0.16"/>
<path d="M156.033 16.651C155.444 17.6444 156.622 17.7548 166.74 17.7548C176.563 17.7548 177.225 17.718 177.115 17.0925C177.005 16.5038 176.158 16.467 166.629 16.3567C159.896 16.3199 156.18 16.3935 156.033 16.651Z" fill="white" fill-opacity="0.16"/>
<path d="M157.504 22.5376C156.989 23.3838 157.909 23.6413 161.404 23.6413C164.789 23.6413 165.047 23.6045 165.047 22.9055C165.047 22.2064 164.789 22.1696 161.404 22.1696C159.344 22.1696 157.615 22.3168 157.504 22.5376Z" fill="white" fill-opacity="0.16"/>
<path d="M92.1438 62.1946C85.179 64.0073 76.8784 69.2548 71.7263 74.9794C54.7435 93.8704 57.9874 124.497 78.6912 138.713C87.5642 144.914 98.9179 148.158 107.409 147.013L112.084 146.345V113.525V80.7039H106.36C101.112 80.7039 100.635 80.8947 99.2995 83.4708C98.3454 85.1881 96.2464 86.9055 93.4796 87.955C89.2816 89.7678 89.1862 89.8632 89.1862 94.252V98.8316H93.0025H96.8189V115.528C96.8189 126.405 96.4373 132.225 95.8648 132.225C93.8612 132.225 87.1826 128.313 83.6524 125.069C76.9738 119.058 73.4437 108.468 74.9702 98.927C78.5004 76.1243 107.314 66.488 123.82 82.4213C131.357 89.6724 134.887 101.98 132.216 111.903C130.594 117.723 125.442 124.592 119.908 128.408L114.947 131.652V138.713C114.947 146.822 114.756 146.727 124.869 141.479C140.325 133.274 149.389 115.242 146.718 97.9729C143.283 75.9335 125.442 60.4772 103.498 60.7634C100.063 60.7634 95.0061 61.4313 92.1438 62.1946Z" fill="#44C3D2"/>
</g>
<defs>
<clipPath id="clip0_260_457">
<rect width="208" height="208" fill="white"/>
</clipPath>
</defs>
</svg>
