<svg width="101" height="48" viewBox="0 0 101 48" fill="none" xmlns="http://www.w3.org/2000/svg">
<path d="M10.6808 0.489332C8.30605 1.10741 5.47592 2.89657 3.71929 4.84838C-2.07109 11.2894 -0.965062 21.7316 6.094 26.5786C9.11931 28.693 12.9904 29.7991 15.8856 29.4087L17.4796 29.181V17.9906V6.8002H15.5278C13.7386 6.8002 13.5759 6.86526 13.1205 7.74357C12.7952 8.32911 12.0796 8.91466 11.1362 9.27249C9.70485 9.89057 9.67232 9.9231 9.67232 11.4195V12.9809H10.9735H12.2747V18.6737C12.2747 22.3822 12.1446 24.3665 11.9494 24.3665C11.2663 24.3665 8.98919 23.0328 7.78557 21.9267C5.50845 19.8773 4.30483 16.2665 4.82532 13.0135C6.02894 5.23874 15.8531 1.95319 21.4808 7.38574C24.0507 9.85804 25.2543 14.0544 24.3435 17.4376C23.7904 19.4219 22.0338 21.7641 20.1471 23.0653L18.4555 24.1713V26.5786C18.4555 29.3436 18.3904 29.3111 21.8386 27.5219C27.1085 24.7243 30.1989 18.5761 29.288 12.6882C28.117 5.17368 22.0338 -0.0962124 14.5519 0.00137901C13.3808 0.00137901 11.6567 0.22909 10.6808 0.489332Z" fill="#44C3D2"/>
<path d="M41.7575 26.4517C35.4493 26.4517 30.5151 21.3301 30.5151 14.7408C30.5151 8.18272 35.4493 3.0924 41.7575 3.0924C47.6598 3.0924 52.2817 7.02725 53.0624 12.7734H48.0346C47.5037 9.5568 45.0053 7.33954 41.82 7.33954C37.9788 7.33954 35.3868 10.3688 35.3868 14.7408C35.3868 19.1441 37.9788 22.2046 41.82 22.2046C45.0053 22.2046 47.4724 19.9561 48.0346 16.7395H53.0624C52.2817 22.5481 47.6598 26.4517 41.7575 26.4517Z" fill="#254162"/>
<path d="M58.8127 25.9833H54.4406V3.56083H58.8127V25.9833Z" fill="#254162"/>
<path d="M66.1718 5.43457C66.1718 6.90234 64.9851 7.99535 63.2675 7.99535C61.5811 7.99535 60.3944 6.90234 60.3944 5.43457C60.3944 3.90435 61.5811 2.81133 63.2675 2.81133C64.9851 2.81133 66.1718 3.90435 66.1718 5.43457ZM65.4847 25.9833H61.1439V9.30697H65.4847V25.9833Z" fill="#254162"/>
<path d="M74.8127 26.2956C70.0034 26.2956 66.6932 22.7354 66.6932 17.6451C66.6932 12.6485 70.1283 8.99468 74.8127 8.99468C79.1535 8.99468 82.3701 11.9302 82.901 16.4272H78.3416C78.123 14.2099 76.7801 12.8358 74.8127 12.8358C72.5642 12.8358 71.1277 14.6784 71.1277 17.6451C71.1277 20.6431 72.533 22.4544 74.8127 22.4544C76.8114 22.4544 78.0917 21.1428 78.3416 18.863H82.901C82.4014 23.4537 79.2785 26.2956 74.8127 26.2956Z" fill="#254162"/>
<path d="M88.4673 25.9833H84.1265V3.56083H88.4673V16.3647L94.557 9.30697H99.5536L92.652 17.3016L100.366 25.9833H94.8381L88.4673 18.2385V25.9833Z" fill="#254162"/>
<path d="M56.3601 32.16H57.6401V37.088H57.7041C57.9174 36.5654 58.2268 36.1814 58.6321 35.936C59.0481 35.68 59.5441 35.552 60.1201 35.552C60.6321 35.552 61.0961 35.6534 61.5121 35.856C61.9281 36.0587 62.2801 36.3467 62.5681 36.72C62.8668 37.0934 63.0908 37.5467 63.2401 38.08C63.4001 38.6134 63.4801 39.2107 63.4801 39.872C63.4801 40.5334 63.4001 41.1307 63.2401 41.664C63.0908 42.1974 62.8668 42.6507 62.5681 43.024C62.2801 43.3974 61.9281 43.6854 61.5121 43.888C61.0961 44.0907 60.6321 44.192 60.1201 44.192C59.0001 44.192 58.1948 43.68 57.7041 42.656H57.6401V44H56.3601V32.16ZM59.7681 43.04C60.4934 43.04 61.0641 42.816 61.4801 42.368C61.8961 41.9094 62.1041 41.312 62.1041 40.576V39.168C62.1041 38.432 61.8961 37.84 61.4801 37.392C61.0641 36.9334 60.4934 36.704 59.7681 36.704C59.4801 36.704 59.2028 36.7467 58.9361 36.832C58.6801 36.9067 58.4561 37.0134 58.2641 37.152C58.0721 37.2907 57.9174 37.4614 57.8001 37.664C57.6934 37.856 57.6401 38.064 57.6401 38.288V41.36C57.6401 41.6267 57.6934 41.8667 57.8001 42.08C57.9174 42.2827 58.0721 42.4587 58.2641 42.608C58.4561 42.7467 58.6801 42.8534 58.9361 42.928C59.2028 43.0027 59.4801 43.04 59.7681 43.04Z" fill="#254162"/>
<path d="M70.3179 35.744H71.5819L67.8859 45.92C67.7899 46.1654 67.6939 46.368 67.5979 46.528C67.5019 46.6987 67.3846 46.832 67.2459 46.928C67.1072 47.024 66.9312 47.0934 66.7179 47.136C66.5152 47.1787 66.2646 47.2 65.9659 47.2H65.3099V46.08H66.6059L67.2299 44.32L64.1419 35.744H65.4219L67.4059 41.36L67.7899 42.704H67.8699L68.3179 41.36L70.3179 35.744Z" fill="#254162"/>
<path d="M79.5929 44.192C78.6862 44.192 77.9129 44.0214 77.2729 43.68C76.6329 43.328 76.0889 42.848 75.6409 42.24L76.6329 41.408C77.0275 41.9307 77.4649 42.3307 77.9449 42.608C78.4249 42.8747 78.9902 43.008 79.6409 43.008C80.4409 43.008 81.0489 42.816 81.4649 42.432C81.8915 42.048 82.1049 41.536 82.1049 40.896C82.1049 40.3627 81.9449 39.952 81.6249 39.664C81.3049 39.376 80.7769 39.1467 80.0409 38.976L79.1289 38.768C78.1049 38.5334 77.3209 38.1814 76.7769 37.712C76.2435 37.232 75.9769 36.56 75.9769 35.696C75.9769 35.2054 76.0675 34.768 76.2489 34.384C76.4302 34 76.6809 33.68 77.0009 33.424C77.3315 33.168 77.7209 32.976 78.1689 32.848C78.6275 32.7094 79.1289 32.64 79.6729 32.64C80.5155 32.64 81.2355 32.7947 81.8329 33.104C82.4409 33.4134 82.9529 33.8667 83.3689 34.464L82.3609 35.2C82.0515 34.7734 81.6782 34.4374 81.2409 34.192C80.8035 33.9467 80.2595 33.824 79.6089 33.824C78.8942 33.824 78.3289 33.9787 77.9129 34.288C77.5075 34.5867 77.3049 35.04 77.3049 35.648C77.3049 36.1814 77.4755 36.5867 77.8169 36.864C78.1689 37.1307 78.6969 37.344 79.4009 37.504L80.3129 37.712C81.4115 37.9574 82.2062 38.3307 82.6969 38.832C83.1875 39.3334 83.4329 40 83.4329 40.832C83.4329 41.344 83.3422 41.808 83.1609 42.224C82.9902 42.64 82.7395 42.992 82.4089 43.28C82.0782 43.568 81.6729 43.792 81.1929 43.952C80.7235 44.112 80.1902 44.192 79.5929 44.192Z" fill="#254162"/>
<path d="M88.9773 34.016V44H87.6333V34.016H84.0813V32.832H92.5293V34.016H88.9773Z" fill="#254162"/>
<path d="M94.0402 44V32.832H95.3842V42.816H100.136V44H94.0402Z" fill="#254162"/>
</svg>
