<svg width="366" height="210" viewBox="0 0 366 210" fill="none" xmlns="http://www.w3.org/2000/svg">
<g clip-path="url(#clip0_260_317)">
<rect width="366" height="210" fill="#254162"/>
<path d="M97.7297 57.613C95.1765 57.9887 95.2602 56.9867 95.595 77.8615L95.8462 96.9827H93.586H91.2839L91.1583 84.2491L91.0328 71.5155L89.9027 70.4301C88.8563 69.3446 88.5633 69.3028 84.4615 69.2611C82.0757 69.2193 79.6481 69.3446 79.0202 69.5533L77.8483 69.8456V83.4141V96.9827H75.1695C72.9512 96.9827 72.4489 96.8574 72.2815 96.2312C72.1978 95.8555 72.0722 89.0503 72.0304 81.1179C71.9885 73.1855 71.8629 66.3804 71.7374 66.0046C71.6118 65.6289 70.8166 65.0444 69.9795 64.7521C68.0541 64.1259 61.7339 64.0841 60.1853 64.7521L59.0133 65.2531V81.1179V96.9827H56.7113H54.4092V90.094V83.2054L53.2791 82.4956C52.3583 81.8694 51.2282 81.7441 47.503 81.7441C44.9917 81.7441 42.5641 81.8694 42.1874 82.0364C41.5177 82.3286 41.434 83.0801 41.434 89.6765V96.9827H40.2202C38.9227 96.9827 38.1693 97.9847 39.0482 98.5274C39.7598 98.9867 112.254 98.9867 112.881 98.5274C113.886 97.7759 112.965 96.9827 111.082 96.9827H109.24V78.8634V60.7859L108.277 59.3665C107.524 58.2392 106.938 57.9052 105.473 57.6547C103.422 57.3625 99.6969 57.3207 97.7297 57.613ZM105.808 78.0702L105.891 96.5652H101.706H97.5204V77.9867V59.3665L101.622 59.4917L105.682 59.617L105.808 78.0702ZM68.8075 66.3386C69.3935 66.5474 69.4772 68.3008 69.4772 81.3684V96.1477H65.3335H61.2317L60.9387 94.2272C60.8131 93.1417 60.6875 86.5036 60.6875 79.4062C60.6875 69.5533 60.8131 66.5474 61.2317 66.3804C61.9851 66.0464 68.0122 66.0464 68.8075 66.3386ZM86.4705 71.098H87.8936V83.6229V96.1477H83.7081H79.5225V83.6646V71.1398L81.113 70.9728C81.9501 70.8893 83.2058 70.8475 83.8755 70.931C84.5452 71.0145 85.7171 71.098 86.4705 71.098ZM51.2282 83.6646C51.3119 83.7481 51.4793 86.6288 51.563 90.094L51.6886 96.3564L47.4193 96.4817L43.1082 96.6069V90.1358C43.1082 83.7899 43.1082 83.6646 44.0709 83.4559C45.1173 83.2471 50.9771 83.4141 51.2282 83.6646Z" fill="#44C3D2" fill-opacity="0.16"/>
<path d="M260.702 97.4017C259.028 97.6481 259.083 96.991 259.303 110.681L259.467 123.22H257.985H256.475L256.393 114.87L256.311 106.519L255.569 105.807C254.883 105.095 254.691 105.068 252.001 105.041C250.437 105.013 248.845 105.095 248.433 105.232L247.664 105.424V114.322V123.22H245.908C244.453 123.22 244.123 123.138 244.014 122.727C243.959 122.481 243.876 118.018 243.849 112.816C243.821 107.614 243.739 103.151 243.657 102.905C243.574 102.659 243.053 102.275 242.504 102.084C241.241 101.673 237.096 101.646 236.081 102.084L235.312 102.412V112.816V123.22H233.803H232.293V118.703V114.185L231.552 113.72C230.948 113.309 230.207 113.227 227.764 113.227C226.117 113.227 224.525 113.309 224.278 113.419C223.839 113.61 223.784 114.103 223.784 118.429V123.22H222.988C222.137 123.22 221.643 123.877 222.219 124.233C222.686 124.535 270.227 124.535 270.639 124.233C271.298 123.741 270.694 123.22 269.459 123.22H268.251V111.338V99.4825L267.619 98.5517C267.125 97.8124 266.741 97.5934 265.78 97.4291C264.435 97.2374 261.992 97.2101 260.702 97.4017ZM266 110.818L266.055 122.947H263.31H260.565V110.763V98.5517L263.255 98.6338L265.918 98.7159L266 110.818ZM241.735 103.124C242.12 103.261 242.174 104.411 242.174 112.98V122.673H239.457H236.767L236.575 121.413C236.493 120.701 236.41 116.348 236.41 111.694C236.41 105.232 236.493 103.261 236.767 103.151C237.261 102.932 241.214 102.932 241.735 103.124ZM253.319 106.245H254.252V114.459V122.673H251.507H248.762V114.486V106.273L249.805 106.163C250.354 106.108 251.178 106.081 251.617 106.136C252.056 106.19 252.825 106.245 253.319 106.245ZM230.207 114.486C230.262 114.541 230.372 116.43 230.426 118.703L230.509 122.81L227.709 122.892L224.882 122.974V118.73C224.882 114.568 224.882 114.486 225.513 114.349C226.199 114.213 230.042 114.322 230.207 114.486Z" fill="#44C3D2" fill-opacity="0.16"/>
<path d="M16.4091 13.7071C10.5356 14.5243 4.10036 19.4784 1.59777 24.9943C-1.36449 31.5828 -0.649464 32.6553 7.52228 33.7279C18.0434 35.1069 19.5245 35.1579 20.1885 34.3408C20.7503 33.6768 23.304 17.5887 23.304 14.8307C23.304 13.8603 22.9465 13.656 21.0567 13.5539C19.8821 13.4517 17.737 13.5028 16.4091 13.7071ZM19.9842 23.5132C19.4224 27.8544 18.8095 31.5317 18.6563 31.736C18.2477 32.0935 3.74285 29.9485 2.82353 29.3866C2.05743 28.927 4.15144 24.2793 6.19438 21.8789C9.20771 18.3037 14.4172 15.699 18.7074 15.6479H21.0567L19.9842 23.5132Z" fill="#44C3D2" fill-opacity="0.16"/>
<path d="M28.6668 19.2231C27.9007 19.5295 27.2367 20.9085 26.1642 24.3815C25.3981 27.0373 24.1723 31.021 23.4573 33.3193L22.2315 37.4563L15.4898 37.8138C7.11377 38.2734 4.56009 38.7331 3.28326 40.061C2.31286 41.0314 2.26179 41.2868 2.87467 43.8405C5.01975 52.9315 12.0168 59.5711 21.159 61.1543C32.344 63.1462 43.9377 54.4637 45.7763 42.819C47.2064 33.9322 42.3034 24.4326 34.0805 20.3467C30.6075 18.6102 30.25 18.5591 28.6668 19.2231ZM35.3063 23.6154C38.3707 25.6583 40.3115 28.0077 42.0991 31.8893C43.2738 34.3919 43.478 35.4644 43.478 39.6524C43.478 44.0958 43.3248 44.8108 41.8437 47.8753C39.8518 51.9611 36.1745 55.5363 32.0887 57.426C29.535 58.6517 28.5646 58.805 24.0701 58.805C19.5246 58.805 18.6564 58.6517 16.1027 57.426C10.8421 54.8212 6.24552 49.1521 5.17298 43.9426L4.86653 42.3593L7.82879 42.0018C9.46314 41.8486 13.9065 41.44 17.686 41.1846C21.4654 40.8782 24.7341 40.4696 24.9384 40.2653C25.1427 40.061 26.5217 35.6687 28.0028 30.5614C31.0161 19.9892 30.6075 20.3978 35.3063 23.6154Z" fill="#44C3D2" fill-opacity="0.16"/>
<path d="M322.063 24.5445C320.442 19.9866 315.423 15.6619 310.603 14.5718C304.851 13.2914 304.112 14.0395 304.602 20.7453C305.235 29.3786 305.438 30.5704 306.201 30.9662C306.824 31.3055 320.099 30.6933 322.302 30.2385C323.077 30.0785 323.182 29.7592 322.952 28.2325C322.84 27.2772 322.445 25.5718 322.063 24.5445ZM314.818 29.0177C311.257 29.2846 308.218 29.4013 308.029 29.3125C307.676 29.045 306.998 17.1025 307.296 16.2754C307.537 15.5875 311.595 16.4942 313.85 17.7307C317.203 19.5488 320.143 23.2815 320.891 26.7007L321.279 28.5778L314.818 29.0177Z" fill="#44C3D2" fill-opacity="0.16"/>
<path d="M319.677 35.2474C319.306 34.6859 318.095 34.3827 315.143 34.0984C312.895 33.9242 309.51 33.6017 307.556 33.4094L304.049 33.1122L302.652 27.7847C300.903 21.1684 300.115 19.2039 298.843 18.4027C297.908 17.7874 297.696 17.7887 295.756 18.6994C288.847 21.9121 284.696 28.5972 284.938 36.1625C285.191 45.4274 294.039 53.2588 303.646 52.8078C310.982 52.4851 317.764 47.0015 319.672 39.7581C320.487 36.697 320.469 36.4029 319.677 35.2474ZM317.263 41.2764C316.136 44.0615 314.579 45.9995 311.772 48.0677C309.966 49.4189 309.143 49.7589 305.797 50.4495C302.247 51.1821 301.651 51.1775 298.958 50.4994C295.365 49.5817 291.902 47.2331 289.719 44.2802C288.319 42.442 288.036 41.692 287.295 38.1011C286.546 34.4694 286.525 33.7504 287.083 31.508C288.297 26.8756 292.068 22.2683 296.054 20.5525L297.268 20.0466L298.042 22.3544C298.434 23.6349 299.493 27.1176 300.32 30.0952C301.188 33.0643 302.054 35.6085 302.251 35.738C302.448 35.8675 306.184 36.2451 310.509 36.5864C319.453 37.2508 319.059 36.9917 317.263 41.2764Z" fill="#44C3D2" fill-opacity="0.16"/>
<path d="M104.253 138.58C102.632 134.023 97.6129 129.698 92.7932 128.608C87.0409 127.327 86.3018 128.076 86.7923 134.781C87.4252 143.415 87.6286 144.606 88.391 145.002C89.0141 145.342 102.289 144.729 104.492 144.275C105.268 144.115 105.372 143.795 105.142 142.269C105.03 141.313 104.636 139.608 104.253 138.58ZM97.0081 143.054C93.447 143.321 90.4079 143.437 90.2194 143.349C89.8664 143.081 89.1887 131.138 89.486 130.311C89.727 129.623 93.7855 130.53 96.0403 131.767C99.3935 133.585 102.334 137.317 103.082 140.737L103.469 142.614L97.0081 143.054Z" fill="#44C3D2" fill-opacity="0.16"/>
<path d="M101.868 149.283C101.497 148.722 100.285 148.419 97.3337 148.134C95.0855 147.96 91.7005 147.638 89.7464 147.445L86.239 147.148L84.8418 141.821C83.0935 135.204 82.3052 133.24 81.0338 132.439C80.0985 131.823 79.886 131.825 77.9468 132.735C71.037 135.948 66.8859 142.633 67.1283 150.199C67.3811 159.463 76.2296 167.295 85.8365 166.844C93.1724 166.521 99.9539 161.037 101.863 153.794C102.677 150.733 102.659 150.439 101.868 149.283ZM99.4531 155.312C98.3262 158.098 96.7691 160.036 93.9626 162.104C92.1568 163.455 91.3335 163.795 87.9875 164.485C84.4374 165.218 83.8408 165.214 81.1483 164.535C77.5554 163.618 74.0927 161.269 71.9092 158.316C70.5088 156.478 70.2264 155.728 69.4854 152.137C68.7359 148.505 68.7152 147.786 69.2735 145.544C70.4872 140.912 74.2588 136.304 78.2441 134.588L79.4586 134.083L80.2326 136.39C80.6245 137.671 81.6836 141.154 82.5107 144.131C83.3787 147.1 84.2441 149.644 84.441 149.774C84.6379 149.904 88.3746 150.281 92.6994 150.622C101.643 151.287 101.249 151.028 99.4531 155.312Z" fill="#44C3D2" fill-opacity="0.16"/>
<path d="M130.37 4.59793C126.721 6.83116 123.301 7.96554 120.471 7.82772C118.596 7.75972 118.549 7.77293 117.892 9.16439C117.453 10.092 116.476 10.8521 115.332 11.2077L114.565 11.4364L114.859 12.4363C115.247 13.7611 115.186 16.2972 114.707 18.9523C114.24 21.4337 113.929 24.7134 113.986 26.3932C114.084 29.1349 115.485 32.5395 117.615 35.2248C119.28 37.3396 124.164 41.8397 125.335 42.3897C125.9 42.65 129.546 41.602 132.432 40.389C136.274 38.7631 139.976 35.5515 141.777 32.2891C142.64 30.7387 142.668 30.5903 143.565 25.5983C144.263 21.7767 144.622 20.2193 145.015 19.4149C145.648 18.0406 145.576 17.2584 144.669 16.0113C144.179 15.348 144.004 14.8758 144.026 14.1772C144.051 12.9959 143.752 12.7199 141.309 11.5788C138.339 10.2066 135.808 8.25805 132.805 5.07876C132.222 4.44185 131.683 3.92298 131.598 3.907C131.531 3.91622 130.992 4.21004 130.37 4.59793ZM135.195 8.71355C136.892 10.1973 138.614 11.3125 140.768 12.3552C142.342 13.0912 142.474 13.204 142.498 13.7794C142.513 14.7485 142.752 15.3427 143.555 16.3285C144.139 17.0754 144.226 17.3115 143.996 17.5976C143.307 18.4561 142.778 20.3329 141.802 25.0464C140.715 30.4639 140.538 30.9357 138.987 32.9932C136.542 36.1781 133.587 38.1031 127.875 40.2111L125.19 41.1765L124.216 40.4C118.253 35.5648 115.188 30.9682 114.943 26.4418C114.896 25.6423 115.16 22.7272 115.526 19.8532C116.057 15.8685 116.159 14.3943 116.004 13.3547C115.842 12.1163 115.862 12.0103 116.212 11.9006C117.077 11.6243 118.292 10.5356 118.693 9.6888C119.049 8.96526 119.259 8.78515 119.695 8.80145C123.759 8.79854 126.543 8.00563 130.256 5.78438L131.471 5.04704L132.683 6.30763C133.343 7.00294 134.477 8.09508 135.195 8.71355Z" fill="#44C3D2" fill-opacity="0.16"/>
<path d="M129.714 8.07607C127.101 9.47237 123.781 10.4279 121.714 10.3239C120.824 10.2661 120.681 10.3269 120.169 11.0649C119.869 11.4915 119.152 12.1471 118.58 12.5006C117.412 13.2247 117.42 13.1823 117.774 15.3794C117.915 16.2625 117.85 17.6558 117.572 20.0632C117.007 24.8102 116.989 26.1903 117.539 28.0509C118.301 30.7641 121.148 34.7706 124.252 37.5297C124.872 38.0857 125.486 38.553 125.614 38.5769C125.741 38.6009 127.182 38.06 128.822 37.4026C132.184 35.9937 135.332 33.9735 136.748 32.2858C138.64 30.0509 138.921 29.379 140.078 24.1724C140.698 21.3465 141.254 19.2112 141.471 18.8786C142.028 18.0174 142.032 17.6448 141.409 17.11C140.789 16.5539 140.532 15.9345 140.5 14.9402C140.502 14.3476 140.335 14.1843 138.431 13.1008C135.892 11.656 134.662 10.7215 132.821 8.83725C132.029 8.02913 131.319 7.36825 131.234 7.35227C131.145 7.35749 130.45 7.66576 129.714 8.07607ZM132.515 9.8777C134.069 11.4223 136.288 13.0484 138.123 14.0312C139.397 14.7323 139.508 14.8412 139.619 15.6526C139.679 16.1472 139.984 16.8634 140.305 17.2535C140.851 17.9712 140.847 17.9924 140.387 18.916C140.123 19.5031 139.616 21.494 139.123 23.9926C138.63 26.4912 138.123 28.4821 137.867 29.0267C136.414 31.9593 133.201 34.5602 128.646 36.4691C127.218 37.0564 125.919 37.5365 125.792 37.5125C125.177 37.3966 121.947 33.9109 120.501 31.7936C119.292 30.0504 118.829 29.1286 118.467 27.7866C117.925 25.8836 117.947 24.8336 118.586 19.4635C118.83 17.4671 118.866 16.1122 118.72 15.1403L118.505 13.7162L119.651 12.8781C120.264 12.4226 120.872 11.8782 121.001 11.6609C121.145 11.3588 121.538 11.2571 122.486 11.238C124.119 11.1945 127.504 10.251 129.494 9.24255C130.366 8.81379 131.107 8.49231 131.163 8.54672C131.218 8.60113 131.83 9.19961 132.515 9.8777Z" fill="#44C3D2" fill-opacity="0.16"/>
<path d="M127.354 15.8231C124.076 16.4352 121.986 18.4352 121.424 21.5357C120.764 25.0351 122.253 27.973 125.444 29.4529C127.104 30.2048 128.599 30.3109 130.43 29.7995C132.055 29.337 133.172 28.5372 134.247 27.0268C134.897 26.1391 135.074 25.6673 135.358 24.1615C135.654 22.5921 135.645 22.1731 135.293 21.0088C134.861 19.4559 133.644 17.7552 132.351 16.8087C131.229 16.0043 128.879 15.5394 127.354 15.8231ZM131.571 17.4523C132.764 18.1163 133.998 19.8422 134.439 21.4627C134.686 22.3658 134.705 22.9624 134.49 24.1077C134.158 25.868 133.388 27.0406 131.854 28.0693C130.515 29.0028 129.391 29.2523 127.696 29.0426C123.898 28.5685 121.615 25.4151 122.327 21.6399C123.102 17.5254 127.903 15.3556 131.571 17.4523Z" fill="#44C3D2" fill-opacity="0.16"/>
<path d="M128.783 17.9151C128.606 18.0356 128.452 18.2701 128.416 18.461C128.38 18.6519 128.095 18.8836 127.753 18.9509C127.082 19.1319 126.256 20.2501 126.36 20.8627C126.479 21.6318 127.088 22.3615 128.021 22.8887C129.673 23.7931 129.898 24.9334 128.589 25.5872C128.037 25.8346 127.884 25.8278 127.504 25.5146C127.256 25.3142 126.965 24.9957 126.87 24.8021C126.779 24.5872 126.54 24.4544 126.333 24.5033C125.788 24.5982 126.075 25.6406 126.784 26.1914C127.147 26.4794 127.29 26.7699 127.222 27.1304C127.15 27.5122 127.228 27.6806 127.546 27.7406C127.864 27.8005 127.998 27.6721 128.07 27.2903C128.138 26.9298 128.377 26.7112 128.866 26.5619C129.706 26.3028 130.098 25.8497 130.286 24.8529C130.498 23.7289 130.105 23.0179 128.78 22.2411C127.357 21.4019 127.12 21.0278 127.535 20.3375C127.955 19.6259 128.898 19.5181 129.666 20.1021C129.991 20.3609 130.357 20.5177 130.475 20.4741C130.968 20.3035 130.75 19.7133 130.025 19.2473C129.556 18.9393 129.272 18.5785 129.312 18.3664C129.4 17.8998 129.135 17.6742 128.783 17.9151Z" fill="#44C3D2" fill-opacity="0.16"/>
<path d="M144.448 7.97562C144.263 8.13852 143.978 8.7216 143.806 9.28224C143.545 10.1994 143.564 10.3347 143.924 10.4026C144.243 10.4626 144.414 10.2533 144.755 9.37326C145.327 7.85578 145.203 7.34922 144.448 7.97562Z" fill="#44C3D2" fill-opacity="0.16"/>
<path d="M146.143 10.052C145.258 10.7857 144.974 11.4788 145.504 11.5787C145.886 11.6506 147.62 10.0228 147.556 9.65952C147.462 9.11455 147.162 9.18984 146.143 10.052Z" fill="#44C3D2" fill-opacity="0.16"/>
<path d="M147.489 11.9968C146.623 12.163 146.261 12.3364 146.209 12.6121C146.113 13.1211 146.325 13.1611 147.96 12.8762C148.911 12.7259 149.294 12.5566 149.296 12.3153C149.282 11.8075 148.836 11.7236 147.489 11.9968Z" fill="#44C3D2" fill-opacity="0.16"/>
<path d="M27.5789 186.581C23.9297 188.814 20.5095 189.949 17.6804 189.811C15.8045 189.743 15.7581 189.756 15.1006 191.148C14.6622 192.075 13.6844 192.835 12.5413 193.191L11.7735 193.42L12.0682 194.419C12.4554 195.744 12.3948 198.28 11.9164 200.936C11.4488 203.417 11.1382 206.697 11.195 208.376C11.2932 211.118 12.6941 214.523 14.8235 217.208C16.4894 219.323 21.3734 223.823 22.5435 224.373C23.1094 224.633 26.7549 223.585 29.6409 222.372C33.4831 220.746 37.185 217.535 38.9857 214.272C39.8489 212.722 39.8768 212.574 40.7736 207.581C41.4718 203.76 41.8312 202.202 42.2244 201.398C42.8567 200.024 42.7845 199.242 41.8775 197.995C41.3876 197.331 41.213 196.859 41.2349 196.16C41.2598 194.979 40.9604 194.703 38.5181 193.562C35.5483 192.19 33.0165 190.241 30.0139 187.062C29.4312 186.425 28.892 185.906 28.8072 185.89C28.7396 185.899 28.2011 186.193 27.5789 186.581ZM32.4036 190.697C34.1006 192.181 35.823 193.296 37.9765 194.338C39.5508 195.074 39.6833 195.187 39.7066 195.763C39.7216 196.732 39.9611 197.326 40.7636 198.312C41.3475 199.059 41.4348 199.295 41.2052 199.581C40.5163 200.439 39.987 202.316 39.0109 207.03C37.9241 212.447 37.7473 212.919 36.1956 214.976C33.7506 218.161 30.7964 220.086 25.0844 222.194L22.3988 223.16L21.4251 222.383C15.4622 217.548 12.3973 212.951 12.1522 208.425C12.1052 207.626 12.369 204.71 12.7349 201.836C13.2662 197.852 13.3683 196.378 13.2128 195.338C13.0509 194.1 13.0709 193.994 13.421 193.884C14.2856 193.608 15.501 192.519 15.9022 191.672C16.2582 190.948 16.4678 190.768 16.904 190.785C20.9674 190.782 23.7523 189.989 27.4651 187.768L28.6802 187.03L29.8921 188.291C30.5517 188.986 31.6856 190.078 32.4036 190.697Z" fill="#44C3D2" fill-opacity="0.16"/>
<path d="M26.9232 190.059C24.3101 191.456 20.9895 192.411 18.9227 192.307C18.0332 192.249 17.8899 192.31 17.3775 193.048C17.0775 193.475 16.361 194.13 15.7893 194.484C14.6206 195.208 14.6286 195.166 14.9832 197.363C15.1243 198.246 15.0594 199.639 14.7814 202.046C14.2162 206.793 14.1977 208.174 14.7476 210.034C15.5101 212.747 18.3568 216.754 21.4605 219.513C22.0805 220.069 22.6952 220.536 22.8225 220.56C22.9497 220.584 24.3913 220.043 26.0306 219.386C29.3927 217.977 32.5406 215.957 33.9567 214.269C35.8493 212.034 36.1297 211.362 37.2865 206.156C37.9069 203.33 38.4631 201.194 38.6795 200.862C39.2371 200.001 39.2414 199.628 38.6175 199.093C37.9975 198.537 37.7409 197.918 37.7086 196.923C37.7105 196.331 37.5436 196.168 35.6395 195.084C33.1006 193.639 31.8712 192.705 30.0301 190.82C29.238 190.012 28.528 189.351 28.4431 189.335C28.3543 189.341 27.6593 189.649 26.9232 190.059ZM29.7242 191.861C31.2779 193.406 33.4971 195.032 35.3324 196.014C36.6058 196.716 36.717 196.824 36.8277 197.636C36.8882 198.13 37.1925 198.847 37.5143 199.237C38.0598 199.954 38.0558 199.976 37.5963 200.899C37.3319 201.486 36.825 203.477 36.3322 205.976C35.8393 208.474 35.3324 210.465 35.076 211.01C33.6229 213.943 30.4096 216.543 25.8551 218.452C24.4267 219.04 23.1284 219.52 23.0011 219.496C22.3861 219.38 19.1557 215.894 17.7099 213.777C16.5011 212.034 16.0379 211.112 15.6758 209.77C15.134 207.867 15.1562 206.817 15.7948 201.447C16.0393 199.45 16.075 198.095 15.9287 197.124L15.7139 195.699L16.8601 194.861C17.4731 194.406 18.0808 193.861 18.2096 193.644C18.3543 193.342 18.7469 193.24 19.6948 193.221C21.3282 193.178 24.7124 192.234 26.7033 191.226C27.5748 190.797 28.3162 190.476 28.3718 190.53C28.4274 190.584 29.0394 191.183 29.7242 191.861Z" fill="#44C3D2" fill-opacity="0.16"/>
<path d="M24.5629 197.806C21.2851 198.418 19.1951 200.418 18.6328 203.519C17.9734 207.018 19.4622 209.956 22.6533 211.436C24.3125 212.188 25.8078 212.294 27.6392 211.783C29.2637 211.32 30.3807 210.52 31.456 209.01C32.1064 208.122 32.2832 207.651 32.5669 206.145C32.8627 204.575 32.8538 204.156 32.5022 202.992C32.0701 201.439 30.8533 199.738 29.5602 198.792C28.438 197.987 26.0878 197.523 24.5629 197.806ZM28.78 199.436C29.9726 200.1 31.2067 201.825 31.648 203.446C31.8951 204.349 31.9144 204.946 31.6986 206.091C31.3669 207.851 30.5968 209.024 29.0633 210.053C27.7234 210.986 26.6003 211.236 24.9048 211.026C21.1069 210.552 18.8242 207.398 19.5356 203.623C20.311 199.509 25.1122 197.339 28.78 199.436Z" fill="#44C3D2" fill-opacity="0.16"/>
<path d="M25.9915 199.898C25.815 200.019 25.661 200.253 25.6251 200.444C25.5891 200.635 25.3038 200.867 24.9617 200.934C24.2907 201.115 23.4651 202.233 23.5692 202.846C23.6879 203.615 24.297 204.345 25.2299 204.872C26.8823 205.776 27.1066 206.917 25.7975 207.57C25.2458 207.818 25.0933 207.811 24.7131 207.498C24.4654 207.297 24.174 206.979 24.0787 206.785C23.9874 206.57 23.7489 206.438 23.542 206.487C22.9971 206.581 23.2838 207.624 23.9926 208.175C24.3556 208.463 24.4985 208.753 24.4306 209.114C24.3586 209.495 24.4367 209.664 24.7548 209.724C25.0729 209.784 25.207 209.655 25.2789 209.274C25.3468 208.913 25.5857 208.694 26.075 208.545C26.9145 208.286 27.3073 207.833 27.4952 206.836C27.707 205.712 27.3139 205.001 25.9888 204.224C24.5657 203.385 24.3288 203.011 24.7444 202.321C25.1639 201.609 26.1067 201.501 26.8751 202.085C27.1997 202.344 27.5654 202.501 27.6835 202.457C28.1768 202.287 27.9586 201.697 27.2338 201.231C26.7648 200.923 26.4814 200.562 26.5214 200.35C26.6093 199.883 26.3443 199.657 25.9915 199.898Z" fill="#44C3D2" fill-opacity="0.16"/>
<path d="M41.6567 189.959C41.4722 190.122 41.1867 190.705 41.0151 191.265C40.7544 192.183 40.7729 192.318 41.1334 192.386C41.4515 192.446 41.6228 192.236 41.9643 191.356C42.5358 189.839 42.4116 189.332 41.6567 189.959Z" fill="#44C3D2" fill-opacity="0.16"/>
<path d="M43.3518 192.035C42.4668 192.769 42.1825 193.462 42.7127 193.562C43.0944 193.634 44.8287 192.006 44.7654 191.643C44.6705 191.098 44.3708 191.173 43.3518 192.035Z" fill="#44C3D2" fill-opacity="0.16"/>
<path d="M44.6982 193.98C43.8323 194.146 43.4702 194.32 43.4183 194.595C43.3223 195.104 43.5344 195.144 45.1694 194.859C46.1201 194.709 46.5034 194.54 46.5049 194.299C46.4908 193.791 46.0454 193.707 44.6982 193.98Z" fill="#44C3D2" fill-opacity="0.16"/>
<path d="M320.862 180.335C318.454 187.523 315.105 192.959 311.11 195.995C308.487 198.04 308.439 198.11 309.132 200.748C309.594 202.506 309.133 204.651 307.987 206.436L307.205 207.621L308.744 208.642C310.779 209.999 313.586 213.509 315.962 217.657C318.154 221.557 321.469 226.361 323.46 228.576C326.717 232.184 332.496 235.208 338.445 236.426C343.115 237.398 354.869 237.94 357.083 237.353C358.148 237.062 361.901 231.486 364.435 226.552C367.796 219.969 369.161 211.394 367.887 204.915C367.292 201.828 367.161 201.595 362.691 193.799C359.285 187.818 357.998 185.295 357.615 183.756C356.907 181.171 355.918 180.192 353.267 179.533C351.846 179.191 351.072 178.749 350.305 177.776C348.993 176.145 348.273 176.111 343.659 177.345C338.065 178.867 332.41 179.107 324.714 178.214C323.197 178.013 321.875 177.923 321.741 177.998C321.66 178.088 321.264 179.1 320.862 180.335ZM332.097 180.423C336.09 180.504 339.698 180.054 343.808 179.016C346.783 178.221 347.091 178.223 347.778 178.977C348.903 180.275 349.905 180.809 352.117 181.232C353.76 181.581 354.147 181.801 354.162 182.451C354.205 184.401 355.625 187.551 359.67 195.059C364.367 203.648 364.665 204.49 364.903 209.049C365.214 216.157 363.398 222.134 358.049 231.502L355.505 235.872L353.299 235.927C339.699 236.159 330.304 233.414 324.814 227.551C323.84 226.52 320.877 222.264 318.099 217.947C314.28 211.935 312.739 209.818 311.344 208.584C309.713 207.088 309.62 206.922 309.97 206.374C310.828 205.014 311.237 202.152 310.817 200.546C310.476 199.159 310.555 198.675 311.165 198.201C316.676 193.567 319.551 189.319 322.059 182.075L322.868 179.69L325.948 180.02C327.636 180.212 330.418 180.402 332.097 180.423Z" fill="#44C3D2" fill-opacity="0.16"/>
<path d="M323.934 185.802C321.979 190.674 318.562 195.753 315.639 197.967C314.366 198.902 314.241 199.148 314.386 200.733C314.465 201.653 314.24 203.359 313.867 204.49C313.106 206.804 313.068 206.738 316.053 209.315C317.25 210.353 318.749 212.317 321.115 215.901C325.756 222.986 327.303 224.88 330.169 226.778C334.295 229.591 342.722 231.784 350.077 231.992C351.552 232.041 352.918 231.974 353.118 231.862C353.318 231.749 354.658 229.373 356.133 226.613C359.09 220.871 361.06 214.544 361.059 210.64C361.081 205.452 360.696 204.22 356.335 195.837C353.957 191.296 352.279 187.765 352.194 187.067C351.969 185.263 351.551 184.753 350.095 184.738C348.62 184.69 347.566 184.142 346.389 182.829C345.717 182.023 345.304 181.991 341.486 182.69C336.395 183.622 333.662 183.755 329.017 183.296C327.022 183.101 325.305 183.013 325.172 183.088C325.058 183.197 324.466 184.407 323.934 185.802ZM329.788 185.056C333.656 185.382 338.519 185.06 342.129 184.303C344.656 183.803 344.931 183.824 346.006 184.799C346.651 185.402 347.88 186.027 348.761 186.189C350.319 186.542 350.338 186.575 350.766 188.352C351.077 189.45 352.657 192.729 354.835 196.681C357.012 200.633 358.593 203.912 358.865 204.943C360.234 210.578 358.837 217.768 354.832 225.547C353.563 227.971 352.348 230.101 352.148 230.214C351.181 230.757 342.827 229.708 338.453 228.482C334.826 227.494 333.148 226.77 331.128 225.362C328.224 223.397 327.058 221.947 321.807 213.932C319.864 210.945 318.369 209.066 317.063 207.913L315.149 206.226L315.75 203.783C316.063 202.466 316.267 201.035 316.194 200.594C316.047 200.019 316.463 199.433 317.728 198.328C319.895 196.408 323.412 191.272 324.965 187.635C325.659 186.061 326.299 184.78 326.436 184.79C326.574 184.801 328.086 184.916 329.788 185.056Z" fill="#44C3D2" fill-opacity="0.16"/>
<path d="M329.558 199.003C325.807 203.568 325.25 208.663 328.019 213.511C331.111 219.011 336.478 221.301 342.494 219.674C345.602 218.804 347.752 217.244 349.655 214.464C351.332 211.985 351.937 209.628 351.675 206.353C351.546 204.408 351.249 203.566 349.918 201.199C348.532 198.733 348.042 198.174 346.239 196.995C343.883 195.38 340.294 194.459 337.462 194.648C335.022 194.834 331.304 196.881 329.558 199.003ZM337.136 196.41C339.511 195.952 343.152 196.888 345.597 198.584C346.961 199.528 347.667 200.316 348.679 202.116C350.234 204.882 350.525 207.351 349.616 210.494C348.861 213.287 347.622 214.905 345.082 216.552C339.388 220.235 332.698 218.557 329.363 212.624C325.727 206.157 329.77 197.743 337.136 196.41Z" fill="#44C3D2" fill-opacity="0.16"/>
<path d="M333.879 200.214C333.777 200.579 333.835 201.073 334.003 201.373C334.172 201.673 334.049 202.312 333.662 202.793C332.957 203.803 333.111 206.261 333.95 206.974C334.987 207.882 336.645 208.178 338.512 207.831C341.784 207.176 343.388 208.467 342.356 210.846C341.889 211.81 341.675 211.975 340.802 211.983C340.237 211.993 339.479 211.893 339.129 211.739C338.761 211.551 338.286 211.643 338.061 211.945C337.429 212.694 339.006 213.782 340.595 213.722C341.416 213.699 341.941 213.931 342.259 214.497C342.597 215.097 342.894 215.237 343.394 214.956C343.894 214.675 343.93 214.348 343.593 213.748C343.274 213.181 343.349 212.612 343.843 211.852C344.687 210.544 344.704 209.482 343.823 207.915C342.83 206.149 341.487 205.632 338.804 206.087C335.916 206.57 335.169 206.332 334.946 204.922C334.705 203.479 335.861 202.258 337.569 202.175C338.305 202.157 338.98 201.953 339.09 201.759C339.565 200.966 338.597 200.413 337.082 200.607C336.095 200.723 335.299 200.556 335.112 200.223C334.7 199.49 334.083 199.485 333.879 200.214Z" fill="#44C3D2" fill-opacity="0.16"/>
<path d="M343.812 168.881C343.747 169.312 344.024 170.429 344.43 171.385C345.121 172.926 345.3 173.089 345.867 172.77C346.367 172.489 346.361 172.01 345.822 170.427C344.868 167.717 344.123 167.171 343.812 168.881Z" fill="#44C3D2" fill-opacity="0.16"/>
<path d="M348.478 169.767C348.113 171.771 348.517 173.035 349.35 172.567C349.95 172.229 350.449 168.045 349.949 167.624C349.199 166.993 348.878 167.436 348.478 169.767Z" fill="#44C3D2" fill-opacity="0.16"/>
<path d="M352.52 170.872C351.535 172.084 351.241 172.732 351.485 173.165C351.934 173.965 352.268 173.778 354.162 171.529C355.281 170.242 355.608 169.575 355.335 169.246C354.737 168.573 354.037 168.967 352.52 170.872Z" fill="#44C3D2" fill-opacity="0.16"/>
<path d="M226.727 0.642464C226.081 0.734795 225.434 1.01179 225.25 1.15028C224.88 1.51961 226.45 9.04461 227.143 10.3834C227.558 11.1221 228.297 11.3067 232.128 11.4914C238.453 11.8145 240.577 12.8302 244.916 17.4929L248.286 21.14L252.765 19.201C255.95 17.8161 257.196 17.0774 257.196 16.4773C257.196 15.2308 253.549 10.5681 250.364 7.65964C247.132 4.7512 243.024 2.53525 239.099 1.51961C236.237 0.78096 228.62 0.226973 226.727 0.642464ZM240.761 4.15105C245.84 6.04384 250.456 9.69092 254.011 14.723L254.934 16.0156L251.887 17.4006L248.794 18.7856L247.825 17.5391C243.993 12.4609 239.33 9.78326 232.775 8.95228L228.574 8.44445L228.158 6.78249C227.927 5.90534 227.604 4.56654 227.42 3.82789L227.143 2.48909L232.359 2.71992C236.376 2.95074 238.315 3.2739 240.761 4.15105Z" fill="#44C3D2" fill-opacity="0.16"/>
<path d="M210.569 4.19714C205.26 6.45926 200.597 9.69085 196.489 13.8919C188.733 21.8786 185.732 29.9114 186.24 41.4066C186.471 47.3158 187.163 50.5936 189.056 55.3487C193.072 65.2743 201.936 73.4456 213.293 77.739C216.155 78.8008 216.34 78.8008 216.894 78.0621C217.494 77.2312 217.725 69.8447 217.217 67.9519C217.079 67.3517 215.647 66.3361 213.431 65.1819C200.09 58.3956 194.411 41.222 201.059 27.7878C203.737 22.3864 208.861 17.4928 214.816 14.5844C217.863 13.1071 218.187 11.9991 216.755 7.42873C215.647 3.96631 214.955 2.58134 214.309 2.67367C214.17 2.67367 212.462 3.36616 210.569 4.19714ZM214.77 7.98272L215.555 10.5218L212.97 11.8145C204.891 15.877 198.243 23.9099 195.981 32.1735C194.734 36.7439 194.827 44.3612 196.212 48.7931C197.966 54.5638 200.228 58.3033 204.337 62.4582C207.338 65.4589 208.861 66.6131 211.862 67.998C215.555 69.7523 215.601 69.8447 215.647 71.4605C215.647 74.0457 215.14 76.0309 214.447 76.0309C213.062 76.0309 204.568 71.1835 201.428 68.6444C187.394 56.9645 183.839 36.7901 193.072 21.2323C195.058 17.9083 200.274 12.5993 204.06 10.0602C207.107 7.98272 213.431 4.84346 213.755 5.21278C213.893 5.35128 214.355 6.55159 214.77 7.98272Z" fill="#44C3D2" fill-opacity="0.16"/>
<path d="M221.788 19.478C209.231 22.2941 202.167 35.4974 206.645 47.8698C207.846 51.1938 209.415 53.5944 212.277 56.2258C218.925 62.3658 227.42 64.5818 235.176 62.1812C249.579 57.7493 255.119 37.5749 244.963 26.6798C242.008 23.4944 239.977 22.2479 235.453 20.6783C230.559 18.9701 225.758 18.5547 221.788 19.478ZM235.637 23.0789C241.685 25.9412 245.471 30.8809 246.625 37.4364C248.379 47.7313 240.854 57.8878 229.913 59.9191C221.788 61.3964 213.247 56.826 209.323 48.8855C207.615 45.4692 207.569 45.2384 207.569 40.5295C207.615 36.5131 207.799 35.1281 208.677 32.9583C210.108 29.3574 213.016 25.8488 216.109 23.956C220.079 21.6016 222.203 21.0938 227.466 21.2323C231.713 21.3708 232.452 21.5554 235.637 23.0789Z" fill="#44C3D2" fill-opacity="0.16"/>
<path d="M217.725 27.3722C215.647 28.434 214.724 29.8651 214.724 32.0349C214.724 34.8972 216.155 36.3745 219.248 36.6977C221.51 36.8823 221.741 36.79 223.265 35.2665C224.604 33.9277 224.881 33.3276 224.881 31.7118C224.881 30.1421 224.604 29.4958 223.311 28.2032C221.557 26.4489 219.941 26.2181 217.725 27.3722ZM222.249 29.7728C223.357 30.7423 223.219 32.4966 221.88 33.7892C220.587 35.128 219.064 35.2665 217.586 34.2047C215.601 32.8197 216.848 29.4035 219.571 28.8495C220.633 28.6187 221.049 28.7572 222.249 29.7728Z" fill="#44C3D2" fill-opacity="0.16"/>
<path d="M225.619 38.3598C217.494 46.3003 214.632 49.3472 214.863 49.9012C215.047 50.3167 215.37 50.6398 215.694 50.6398C216.432 50.6398 238.269 28.8958 238.269 28.1572C238.269 26.449 235.683 28.5265 225.619 38.3598Z" fill="#44C3D2" fill-opacity="0.16"/>
<path d="M232.267 40.5294C229.174 41.7759 227.928 44.7305 229.266 47.5928C230.651 50.5012 233.56 51.3783 236.237 49.7625C240.992 46.8541 237.392 38.5443 232.267 40.5294ZM235.683 43.207C236.884 44.4997 236.468 46.8541 234.945 48.0083L233.652 48.9777L232.406 48.0083C230.651 46.7156 230.374 44.1303 231.898 43.0685C233.283 42.0991 234.714 42.1452 235.683 43.207Z" fill="#44C3D2" fill-opacity="0.16"/>
<path d="M259.874 25.7104C257.658 26.5876 255.719 27.4647 255.581 27.6494C255.396 27.7879 255.812 29.4498 256.504 31.2964C257.981 35.4052 258.443 40.7604 257.704 44.7306C256.827 49.3472 253.596 55.4411 250.041 59.319C246.348 63.2892 241.131 66.844 237.299 67.9981C234.298 68.9214 234.437 68.6906 233.652 73.7227C232.867 78.847 232.96 79.1702 234.899 79.5395C238.73 80.2782 247.548 77.1389 253.826 72.8917C263.383 66.3823 269.246 54.4254 269.246 41.2682C269.246 32.2659 267.815 26.3567 265.368 24.9256L263.891 24.0946L259.874 25.7104ZM264.306 28.8035C266.383 35.4052 266.707 43.6227 265.045 49.9474C261.675 63.1046 251.795 73.2148 239.192 76.4464C237.299 76.9081 235.591 77.2312 235.452 77.1389C235.314 77.0927 235.406 75.5693 235.637 73.7688L236.099 70.5834L238.684 69.6139C248.841 65.9207 256.966 56.6414 259.32 46.1156C260.336 41.5914 260.013 34.805 258.674 31.2964C258.12 29.9115 257.704 28.7573 257.797 28.7112C261.074 27.3262 262.598 26.7261 263.06 26.6799C263.337 26.6337 263.891 27.6032 264.306 28.8035Z" fill="#44C3D2" fill-opacity="0.16"/>
<path d="M332.474 76.3232C332.769 76.3654 333.065 76.4921 333.149 76.5554C333.318 76.7243 332.6 80.1651 332.284 80.7773C332.094 81.1151 331.756 81.1995 330.004 81.2839C327.112 81.4317 326.141 81.8961 324.156 84.0282L322.615 85.6958L320.568 84.8092C319.111 84.1759 318.541 83.8382 318.541 83.5638C318.541 82.9938 320.209 80.8618 321.666 79.5319C323.143 78.202 325.022 77.1887 326.816 76.7243C328.125 76.3865 331.608 76.1332 332.474 76.3232ZM326.056 77.9275C323.734 78.793 321.623 80.4607 319.998 82.7616L319.576 83.3527L320.969 83.986L322.383 84.6192L322.827 84.0493C324.579 81.7272 326.711 80.5029 329.708 80.1229L331.629 79.8907L331.819 79.1308C331.925 78.7297 332.073 78.1175 332.157 77.7798L332.284 77.1676L329.898 77.2731C328.062 77.3787 327.175 77.5265 326.056 77.9275Z" fill="#44C3D2" fill-opacity="0.16"/>
<path d="M339.862 77.9488C342.29 78.9831 344.422 80.4608 346.3 82.3818C349.847 86.0337 351.219 89.7068 350.987 94.963C350.881 97.6651 350.565 99.1638 349.699 101.338C347.863 105.877 343.809 109.613 338.617 111.576C337.308 112.062 337.223 112.062 336.97 111.724C336.696 111.344 336.59 107.967 336.822 107.101C336.886 106.827 337.54 106.362 338.553 105.834C344.654 102.731 347.25 94.8786 344.211 88.7357C342.986 86.2659 340.643 84.0283 337.92 82.6984C336.527 82.0229 336.379 81.5163 337.033 79.4264C337.54 77.8432 337.857 77.2099 338.152 77.2521C338.215 77.2521 338.997 77.5688 339.862 77.9488ZM337.941 79.6797L337.582 80.8408L338.764 81.4318C342.458 83.2895 345.498 86.9625 346.533 90.7411C347.103 92.831 347.06 96.314 346.427 98.3406C345.625 100.979 344.591 102.689 342.712 104.589C341.34 105.961 340.643 106.489 339.271 107.122C337.582 107.924 337.561 107.967 337.54 108.705C337.54 109.887 337.772 110.795 338.089 110.795C338.722 110.795 342.606 108.579 344.042 107.418C350.459 102.077 352.084 92.8521 347.863 85.7382C346.955 84.2183 344.569 81.7907 342.838 80.6297C341.445 79.6797 338.553 78.2443 338.405 78.4132C338.342 78.4765 338.131 79.0253 337.941 79.6797Z" fill="#44C3D2" fill-opacity="0.16"/>
<path d="M334.733 84.9362C340.474 86.2238 343.704 92.2612 341.657 97.9185C341.108 99.4384 340.39 100.536 339.081 101.739C336.041 104.547 332.157 105.56 328.611 104.462C322.025 102.436 319.492 93.2111 324.136 88.2292C325.487 86.7727 326.416 86.2027 328.484 85.485C330.722 84.704 332.917 84.514 334.733 84.9362ZM328.4 86.5827C325.635 87.8915 323.904 90.1502 323.376 93.1478C322.574 97.8552 326.014 102.499 331.017 103.428C334.733 104.104 338.638 102.014 340.432 98.3829C341.213 96.8208 341.234 96.7153 341.234 94.5621C341.213 92.7256 341.129 92.0923 340.728 91.1001C340.073 89.4536 338.744 87.8493 337.329 86.9838C335.514 85.9072 334.543 85.675 332.136 85.7383C330.194 85.8016 329.856 85.8861 328.4 86.5827Z" fill="#44C3D2" fill-opacity="0.16"/>
<path d="M336.59 88.5459C337.54 89.0314 337.962 89.6858 337.962 90.6779C337.962 91.9867 337.308 92.6622 335.894 92.81C334.859 92.8944 334.754 92.8522 334.057 92.1556C333.445 91.5434 333.318 91.269 333.318 90.5302C333.318 89.8124 333.445 89.5169 334.036 88.9258C334.838 88.1237 335.577 88.0181 336.59 88.5459ZM334.522 89.6436C334.015 90.0869 334.078 90.889 334.69 91.4801C335.281 92.0923 335.978 92.1556 336.654 91.6701C337.561 91.0368 336.991 89.4747 335.746 89.2214C335.26 89.1158 335.07 89.1792 334.522 89.6436Z" fill="#44C3D2" fill-opacity="0.16"/>
<path d="M332.98 93.57C336.695 97.2008 338.004 98.5941 337.899 98.8474C337.814 99.0374 337.666 99.1851 337.519 99.1851C337.181 99.1851 327.196 89.2425 327.196 88.9048C327.196 88.1237 328.378 89.0737 332.98 93.57Z" fill="#44C3D2" fill-opacity="0.16"/>
<path d="M329.941 94.5621C331.355 95.1321 331.925 96.4831 331.313 97.7919C330.68 99.1218 329.35 99.5229 328.125 98.7841C325.951 97.4542 327.598 93.6544 329.941 94.5621ZM328.379 95.7865C327.83 96.3776 328.02 97.4542 328.716 97.9819L329.308 98.4252L329.877 97.9819C330.68 97.3908 330.806 96.2087 330.11 95.7232C329.476 95.2799 328.822 95.301 328.379 95.7865Z" fill="#44C3D2" fill-opacity="0.16"/>
<path d="M317.317 87.7859C318.33 88.1869 319.217 88.588 319.28 88.6725C319.364 88.7358 319.174 89.4957 318.858 90.3401C318.182 92.2189 317.971 94.6676 318.309 96.483C318.71 98.5939 320.188 101.38 321.813 103.154C323.502 104.969 325.887 106.594 327.639 107.122C329.011 107.544 328.948 107.439 329.307 109.74C329.666 112.083 329.624 112.231 328.737 112.4C326.985 112.737 322.953 111.302 320.082 109.36C315.712 106.383 313.032 100.916 313.032 94.8998C313.032 90.7834 313.686 88.0814 314.805 87.427L315.48 87.047L317.317 87.7859ZM315.29 89.2002C314.34 92.2189 314.193 95.9763 314.952 98.8684C316.493 104.885 321.011 109.508 326.774 110.985C327.639 111.196 328.42 111.344 328.484 111.302C328.547 111.281 328.505 110.584 328.399 109.761L328.188 108.304L327.006 107.861C322.362 106.172 318.647 101.929 317.57 97.1163C317.106 95.0475 317.253 91.9444 317.866 90.3401C318.119 89.7068 318.309 89.1791 318.267 89.158C316.768 88.5247 316.071 88.2503 315.86 88.2292C315.734 88.208 315.48 88.6513 315.29 89.2002Z" fill="#44C3D2" fill-opacity="0.16"/>
<path d="M125.031 183.114C125.327 183.156 125.622 183.283 125.707 183.346C125.876 183.515 125.158 186.956 124.841 187.568C124.651 187.906 124.313 187.99 122.561 188.074C119.669 188.222 118.698 188.687 116.714 190.819L115.173 192.486L113.125 191.6C111.669 190.966 111.099 190.629 111.099 190.354C111.099 189.784 112.767 187.652 114.223 186.322C115.701 184.992 117.58 183.979 119.374 183.515C120.683 183.177 124.166 182.924 125.031 183.114ZM118.614 184.718C116.292 185.584 114.181 187.251 112.555 189.552L112.133 190.143L113.527 190.776L114.941 191.41L115.384 190.84C117.136 188.518 119.268 187.293 122.266 186.913L124.187 186.681L124.377 185.921C124.482 185.52 124.63 184.908 124.715 184.57L124.841 183.958L122.456 184.064C120.619 184.169 119.733 184.317 118.614 184.718Z" fill="#44C3D2" fill-opacity="0.16"/>
<path d="M132.42 184.739C134.847 185.774 136.979 187.251 138.858 189.172C142.404 192.824 143.777 196.497 143.544 201.754C143.439 204.456 143.122 205.954 142.257 208.129C140.42 212.667 136.367 216.404 131.174 218.367C129.865 218.852 129.781 218.852 129.528 218.515C129.253 218.135 129.148 214.757 129.38 213.892C129.443 213.617 130.098 213.153 131.111 212.625C137.211 209.522 139.808 201.669 136.768 195.526C135.544 193.056 133.201 190.819 130.478 189.489C129.084 188.813 128.937 188.307 129.591 186.217C130.098 184.634 130.414 184 130.71 184.043C130.773 184.043 131.554 184.359 132.42 184.739ZM130.499 186.47L130.14 187.631L131.322 188.222C135.016 190.08 138.056 193.753 139.09 197.532C139.66 199.621 139.618 203.105 138.985 205.131C138.183 207.77 137.148 209.48 135.269 211.379C133.897 212.752 133.201 213.279 131.829 213.913C130.14 214.715 130.119 214.757 130.098 215.496C130.098 216.678 130.33 217.586 130.646 217.586C131.28 217.586 135.164 215.369 136.599 214.208C143.017 208.867 144.642 199.643 140.42 192.529C139.512 191.009 137.127 188.581 135.396 187.42C134.003 186.47 131.111 185.035 130.963 185.204C130.9 185.267 130.689 185.816 130.499 186.47Z" fill="#44C3D2" fill-opacity="0.16"/>
<path d="M127.29 191.727C133.032 193.014 136.262 199.052 134.214 204.709C133.665 206.229 132.948 207.327 131.639 208.53C128.599 211.337 124.715 212.351 121.169 211.253C114.582 209.226 112.049 200.002 116.693 195.02C118.044 193.563 118.973 192.993 121.042 192.276C123.28 191.494 125.475 191.304 127.29 191.727ZM120.957 193.373C118.192 194.682 116.461 196.941 115.933 199.938C115.131 204.646 118.572 209.29 123.575 210.219C127.29 210.894 131.196 208.804 132.99 205.173C133.771 203.611 133.792 203.506 133.792 201.353C133.771 199.516 133.686 198.883 133.285 197.891C132.631 196.244 131.301 194.64 129.887 193.774C128.071 192.698 127.1 192.466 124.694 192.529C122.752 192.592 122.414 192.677 120.957 193.373Z" fill="#44C3D2" fill-opacity="0.16"/>
<path d="M129.148 195.336C130.098 195.822 130.52 196.476 130.52 197.468C130.52 198.777 129.866 199.453 128.451 199.601C127.417 199.685 127.311 199.643 126.615 198.946C126.003 198.334 125.876 198.06 125.876 197.321C125.876 196.603 126.003 196.307 126.594 195.716C127.396 194.914 128.135 194.809 129.148 195.336ZM127.079 196.434C126.573 196.877 126.636 197.68 127.248 198.271C127.839 198.883 128.536 198.946 129.211 198.461C130.119 197.827 129.549 196.265 128.303 196.012C127.818 195.906 127.628 195.97 127.079 196.434Z" fill="#44C3D2" fill-opacity="0.16"/>
<path d="M125.538 200.36C129.253 203.991 130.562 205.385 130.456 205.638C130.372 205.828 130.224 205.976 130.076 205.976C129.739 205.976 119.754 196.033 119.754 195.695C119.754 194.914 120.936 195.864 125.538 200.36Z" fill="#44C3D2" fill-opacity="0.16"/>
<path d="M122.498 201.353C123.913 201.923 124.483 203.274 123.871 204.582C123.237 205.912 121.907 206.313 120.683 205.575C118.509 204.245 120.155 200.445 122.498 201.353ZM120.936 202.577C120.387 203.168 120.577 204.245 121.274 204.772L121.865 205.216L122.435 204.772C123.237 204.181 123.364 202.999 122.667 202.514C122.034 202.07 121.38 202.091 120.936 202.577Z" fill="#44C3D2" fill-opacity="0.16"/>
<path d="M109.874 194.576C110.888 194.977 111.774 195.379 111.838 195.463C111.922 195.526 111.732 196.286 111.415 197.131C110.74 199.009 110.529 201.458 110.866 203.273C111.268 205.384 112.745 208.171 114.371 209.944C116.059 211.76 118.445 213.385 120.197 213.913C121.569 214.335 121.506 214.229 121.865 216.53C122.223 218.873 122.181 219.021 121.295 219.19C119.543 219.528 115.511 218.092 112.64 216.15C108.27 213.174 105.589 207.706 105.589 201.69C105.589 197.574 106.244 194.872 107.362 194.218L108.038 193.838L109.874 194.576ZM107.848 195.991C106.898 199.009 106.75 202.767 107.51 205.659C109.051 211.675 113.569 216.298 119.331 217.776C120.197 217.987 120.978 218.135 121.041 218.092C121.105 218.071 121.062 217.375 120.957 216.551L120.746 215.095L119.564 214.652C114.92 212.963 111.204 208.72 110.128 203.907C109.663 201.838 109.811 198.735 110.423 197.131C110.677 196.497 110.866 195.97 110.824 195.948C109.325 195.315 108.629 195.041 108.418 195.02C108.291 194.999 108.038 195.442 107.848 195.991Z" fill="#44C3D2" fill-opacity="0.16"/>
<path d="M146.327 138.769C146.508 138.795 146.688 138.872 146.739 138.911C146.842 139.013 146.405 141.111 146.212 141.485C146.096 141.691 145.89 141.742 144.821 141.794C143.058 141.884 142.466 142.167 141.256 143.467L140.317 144.484L139.068 143.943C138.18 143.557 137.832 143.351 137.832 143.184C137.832 142.836 138.849 141.536 139.737 140.725C140.638 139.914 141.784 139.297 142.878 139.013C143.676 138.808 145.8 138.653 146.327 138.769ZM142.415 139.747C140.999 140.275 139.712 141.292 138.721 142.695L138.463 143.055L139.313 143.441L140.175 143.827L140.445 143.48C141.514 142.064 142.814 141.317 144.641 141.086L145.813 140.944L145.928 140.481C145.993 140.236 146.083 139.863 146.134 139.657L146.212 139.284L144.757 139.348C143.637 139.412 143.097 139.503 142.415 139.747Z" fill="#44C3D2" fill-opacity="0.16"/>
<path d="M150.832 139.76C152.313 140.391 153.613 141.292 154.758 142.463C156.92 144.69 157.757 146.929 157.615 150.134C157.551 151.782 157.358 152.696 156.83 154.021C155.711 156.789 153.239 159.067 150.073 160.264C149.275 160.56 149.224 160.56 149.069 160.354C148.902 160.122 148.837 158.063 148.979 157.535C149.018 157.368 149.417 157.085 150.034 156.763C153.754 154.871 155.337 150.083 153.484 146.337C152.737 144.831 151.309 143.467 149.648 142.656C148.799 142.244 148.709 141.935 149.108 140.661C149.417 139.696 149.61 139.31 149.79 139.335C149.828 139.335 150.305 139.528 150.832 139.76ZM149.661 140.816L149.442 141.524L150.163 141.884C152.416 143.017 154.269 145.256 154.9 147.56C155.247 148.834 155.221 150.958 154.835 152.194C154.346 153.803 153.716 154.845 152.57 156.003C151.733 156.84 151.309 157.162 150.472 157.548C149.442 158.037 149.429 158.063 149.417 158.513C149.417 159.234 149.558 159.788 149.751 159.788C150.137 159.788 152.506 158.436 153.381 157.728C157.294 154.472 158.285 148.847 155.711 144.51C155.157 143.583 153.703 142.103 152.647 141.395C151.798 140.816 150.034 139.94 149.944 140.043C149.906 140.082 149.777 140.417 149.661 140.816Z" fill="#44C3D2" fill-opacity="0.16"/>
<path d="M147.705 144.02C151.206 144.806 153.175 148.487 151.927 151.936C151.592 152.863 151.154 153.532 150.356 154.266C148.503 155.978 146.135 156.596 143.972 155.926C139.957 154.691 138.412 149.066 141.244 146.028C142.067 145.14 142.634 144.793 143.895 144.355C145.259 143.879 146.598 143.763 147.705 144.02ZM143.844 145.024C142.158 145.822 141.102 147.2 140.78 149.027C140.291 151.898 142.389 154.729 145.44 155.296C147.705 155.707 150.086 154.433 151.18 152.219C151.656 151.267 151.669 151.203 151.669 149.89C151.656 148.77 151.605 148.384 151.36 147.779C150.961 146.775 150.15 145.797 149.288 145.269C148.181 144.613 147.589 144.471 146.122 144.51C144.938 144.548 144.732 144.6 143.844 145.024Z" fill="#44C3D2" fill-opacity="0.16"/>
<path d="M148.838 146.222C149.417 146.518 149.674 146.917 149.674 147.521C149.674 148.319 149.275 148.731 148.413 148.821C147.782 148.873 147.718 148.847 147.293 148.422C146.92 148.049 146.843 147.882 146.843 147.431C146.843 146.994 146.92 146.814 147.28 146.453C147.769 145.964 148.22 145.9 148.838 146.222ZM147.576 146.891C147.267 147.161 147.306 147.65 147.679 148.011C148.04 148.384 148.464 148.422 148.876 148.126C149.43 147.74 149.082 146.788 148.323 146.633C148.027 146.569 147.911 146.608 147.576 146.891Z" fill="#44C3D2" fill-opacity="0.16"/>
<path d="M146.637 149.285C148.902 151.499 149.7 152.348 149.635 152.503C149.584 152.618 149.494 152.708 149.404 152.708C149.198 152.708 143.11 146.646 143.11 146.44C143.11 145.964 143.831 146.543 146.637 149.285Z" fill="#44C3D2" fill-opacity="0.16"/>
<path d="M144.783 149.89C145.646 150.237 145.993 151.061 145.62 151.859C145.234 152.67 144.423 152.914 143.676 152.464C142.351 151.653 143.355 149.336 144.783 149.89ZM143.831 150.636C143.496 150.997 143.612 151.653 144.037 151.975L144.397 152.245L144.745 151.975C145.234 151.614 145.311 150.894 144.886 150.598C144.5 150.327 144.101 150.34 143.831 150.636Z" fill="#44C3D2" fill-opacity="0.16"/>
<path d="M137.086 145.758C137.704 146.003 138.244 146.247 138.283 146.299C138.334 146.337 138.219 146.801 138.025 147.315C137.614 148.461 137.485 149.954 137.691 151.061C137.935 152.348 138.836 154.047 139.827 155.128C140.857 156.235 142.312 157.226 143.38 157.548C144.216 157.805 144.178 157.741 144.397 159.144C144.615 160.573 144.59 160.663 144.049 160.766C142.981 160.972 140.522 160.096 138.772 158.912C136.108 157.098 134.473 153.764 134.473 150.096C134.473 147.586 134.872 145.938 135.554 145.539L135.966 145.308L137.086 145.758ZM135.85 146.62C135.271 148.461 135.181 150.752 135.644 152.515C136.584 156.184 139.338 159.002 142.852 159.903C143.38 160.032 143.856 160.122 143.895 160.096C143.933 160.084 143.908 159.659 143.843 159.157L143.714 158.269L142.994 157.998C140.162 156.969 137.897 154.382 137.24 151.447C136.957 150.186 137.047 148.294 137.421 147.315C137.575 146.929 137.691 146.608 137.665 146.595C136.751 146.209 136.326 146.041 136.198 146.028C136.121 146.016 135.966 146.286 135.85 146.62Z" fill="#44C3D2" fill-opacity="0.16"/>
<path d="M155.833 70.5686C154.031 70.0396 152.227 69.5896 151.802 69.5191C150.784 69.3989 149.411 70.1346 148.737 71.1433C147.917 72.4182 141.229 90.793 139.543 96.4026C137.908 101.871 137.778 102.992 138.786 104.646C139.692 106.211 140.328 106.515 149.507 109.882L158.143 113.058L158.256 113.867C158.366 114.834 158.578 114.908 160.195 114.683L161.456 114.491L162.169 115.326C162.813 116.056 162.842 116.199 162.5 116.794C161.204 119.042 161.188 119.089 161.757 119.581C162.778 120.445 164.616 121.172 165.731 121.167C166.688 121.16 166.824 121.075 167.434 120.097C168.337 118.586 168.935 118.771 169.542 120.734L169.999 122.221L171.02 122.183C173.806 122.025 174.857 121.149 174.733 119.17C174.664 118.086 174.706 117.968 175.274 117.558C175.683 117.225 175.993 117.175 176.313 117.394C178.237 118.629 178.316 118.63 179.034 117.796C180.526 116.122 180.813 115.534 180.622 114.645C180.521 114.105 180.142 113.6 179.572 113.187C178.814 112.629 178.746 112.446 178.946 111.88C179.129 111.361 179.481 111.114 180.522 110.792C181.246 110.543 181.933 110.175 182.016 109.939C182.149 109.562 181.871 108.245 181.261 106.439C181.065 105.866 181.041 105.858 179.61 105.857C178.211 105.841 178.14 105.816 177.841 105.234C177.581 104.771 177.627 104.337 178.035 103.181C178.367 102.238 178.474 101.56 178.335 101.352C178.035 100.848 175.5 99.2392 175.018 99.2546C174.828 99.2672 174.266 99.7321 173.798 100.309C172.974 101.292 172.847 101.353 172.02 101.141L171.146 100.912L174.221 92.1871C177.595 82.6127 177.868 81.4628 177.224 79.8306C176.442 77.9114 175.768 77.5678 166.981 74.3651C162.659 72.7888 157.643 71.074 155.833 70.5686ZM174.706 78.6251C176.041 79.6523 175.98 80.4262 174.185 85.5199C173.337 87.9253 171.928 91.6971 171.044 93.9042L169.465 97.934L168.202 98.2841C167.526 98.4703 166.876 98.5857 166.782 98.5524C166.711 98.5275 167.254 96.8366 168.024 94.8015L169.423 91.1324L164.825 89.5117L160.226 87.8911L158.855 91.7822L157.483 95.6732L161.585 97.1984L165.687 98.7235L165.796 100.22L165.897 101.74L165.044 102.58L164.183 103.443L162.919 102.44C162.123 101.842 161.528 101.499 161.336 101.591C161.049 101.728 159.001 104.532 158.826 105.028C158.776 105.169 159.116 105.634 159.591 106.092L160.423 106.89L157.641 105.909L154.85 104.952L156.059 101.746L157.268 98.5402L160.39 99.6136C162.087 100.212 163.598 100.665 163.702 100.595C163.83 100.534 163.936 100.307 163.917 100.061C163.907 99.7133 163.405 99.4833 160.299 98.4417L156.689 97.2492L156.364 97.7972C156.177 98.1024 155.465 99.9723 154.822 101.946L153.621 105.579L157.347 106.892C160.554 108.023 161.104 108.269 161.105 108.641C161.125 109.337 161.053 109.391 159.63 109.818L158.247 110.205L149.289 106.889C143.348 104.716 140.167 103.436 139.903 103.131C138.94 102.102 139.001 101.779 141.592 93.5986C143.29 88.179 144.844 83.7692 146.836 78.7183C149.863 70.9569 150.05 70.6517 151.49 70.6288C153.468 70.5835 172.997 77.3069 174.706 78.6251ZM166.991 94.6494L165.91 97.7151L162.373 96.4685L158.836 95.2218L159.908 92.1797L160.98 89.1376L164.525 90.3607L168.071 91.5838L166.991 94.6494ZM176.526 101.218L177.488 101.875L176.911 103.209C176.343 104.52 176.342 104.599 176.915 105.756L177.504 106.944L178.753 106.934C179.465 106.946 180.097 106.957 180.192 106.99C180.286 107.023 180.506 107.604 180.676 108.248L180.964 109.463L180.312 109.657C178.636 110.127 178.523 110.22 177.85 111.679L177.185 113.115L178.259 114.13C178.858 114.686 179.347 115.255 179.384 115.375C179.422 115.494 179.185 115.941 178.862 116.331C178.312 117.064 178.288 117.056 176.92 116.574L175.529 116.084L174.305 116.925L173.072 117.789L173.017 119.149C173.012 119.916 172.953 120.611 172.928 120.681C172.894 120.776 172.402 120.894 171.815 120.979L170.729 121.126L170.349 119.799L169.992 118.48L168.387 117.994L166.782 117.508L165.787 118.827L164.791 120.147L163.883 119.641C162.637 118.963 162.616 118.797 163.406 117.458C164.204 116.096 164.153 115.866 162.81 114.411L161.924 113.463L160.626 113.536L159.328 113.609L159.183 112.365C159.1 111.699 159.062 111.129 159.117 111.122C159.173 111.115 159.833 110.897 160.597 110.609C162.132 110.09 162.026 110.317 162.36 107.413C162.398 107.002 162.128 106.642 161.269 105.995C160.137 105.145 160.106 105.081 160.512 104.455C161.505 102.843 161.6 102.798 162.552 103.557C164.034 104.769 164.28 104.749 165.766 103.391L167.099 102.164L167 101.016L166.91 99.8436L167.785 99.5423C168.994 99.1201 169.166 99.2337 169.368 100.392C169.446 100.923 169.611 101.432 169.736 101.529C169.837 101.618 170.71 101.925 171.654 102.179L173.362 102.674L174.212 101.542C174.673 100.909 175.179 100.452 175.297 100.493C175.439 100.543 175.987 100.869 176.526 101.218Z" fill="#2A5674"/>
<path d="M151.687 73.4553C151.423 73.6011 150.954 74.7081 150.253 76.8471L149.21 80.032L159.087 83.7515C164.548 85.7823 169.177 87.4667 169.399 87.4389C169.747 87.429 169.977 86.9268 170.977 83.9389L172.137 80.4238L162.115 76.8125C153.76 73.815 152.022 73.2554 151.687 73.4553ZM169.947 83.6287L169.032 86.2227L167.452 85.6659C166.556 85.35 162.422 83.8401 158.21 82.3289L150.562 79.5807L151.46 77.0338L152.349 74.5105L161.617 77.7767L170.861 81.0346L169.947 83.6287Z" fill="#2A5674"/>
<path d="M148.085 83.3737C147.671 83.5722 145.162 91.0657 145.361 91.4803C145.62 92.0225 154.346 95.0976 154.637 94.723C154.758 94.6064 155.493 92.7448 156.273 90.6071L157.715 86.741L153 84.9997C150.414 84.0619 148.205 83.3362 148.085 83.3737ZM156.352 87.3741C156.358 87.5086 155.859 88.9235 155.23 90.5577L154.095 93.5512L150.369 92.2381L146.643 90.925L147.557 87.8802C148.069 86.2045 148.544 84.7812 148.656 84.6883C148.881 84.5023 156.341 87.105 156.352 87.3741Z" fill="#2A5674"/>
<path d="M151.3 86.8133C151.163 86.977 151.015 87.3224 150.979 87.5749C150.901 87.9452 150.695 88.0049 150.025 87.8749C149.355 87.7448 149.116 87.8198 148.992 88.1735C148.859 88.5509 148.99 88.7034 149.651 88.9361C150.405 89.202 150.451 89.2977 150.273 90.0301C149.993 91.1245 150.781 91.2962 151.257 90.2446C151.578 89.5621 151.665 89.5399 152.61 89.7933C153.31 89.9871 153.666 89.9537 153.75 89.7178C153.833 89.482 153.576 89.2325 152.909 88.9443C152.014 88.5494 151.96 88.4773 152.138 87.7449C152.35 86.9182 151.784 86.268 151.3 86.8133Z" fill="#2A5674"/>
<path d="M144.678 93.0424C144.55 93.1034 143.823 94.9415 143.058 97.1111L141.67 101.049L143.051 101.721C143.795 102.09 145.918 102.838 147.743 103.375L151.056 104.357L151.902 102.481C152.339 101.469 153.034 99.646 153.394 98.4739L154.072 96.3265L149.474 94.6268C146.959 93.714 144.797 93.0049 144.678 93.0424ZM152.747 96.9998C152.777 97.1427 152.254 98.5493 151.602 100.175L150.405 103.12L146.655 101.799L142.929 100.486L143.993 97.4671C144.583 95.7927 145.161 94.3792 145.28 94.3417C145.575 94.1806 152.689 96.7141 152.747 96.9998Z" fill="#2A5674"/>
<path d="M148.707 97.4053L147.87 97.8259L147.487 97.1076C146.759 95.7113 145.875 96.1153 146.515 97.5339L146.934 98.4505L146.096 98.8711C145.274 99.3236 145.019 99.8965 145.562 100.088C145.727 100.146 146.195 100.019 146.618 99.7973L147.36 99.4225L147.792 100.078C148.007 100.446 148.357 100.808 148.522 100.866C149.017 101.04 149.238 100.111 148.796 99.6368C148.299 99.0906 148.439 98.7688 149.317 98.3093C149.939 97.972 149.996 97.886 149.798 97.4713C149.599 97.0567 149.473 97.0388 148.707 97.4053Z" fill="#2A5674"/>
<path d="M161.733 92.2662C161.425 92.2372 161.171 92.2803 161.138 92.3746C161.12 92.5009 161.062 92.6659 161.012 92.8074C160.962 92.9489 161.754 93.3341 162.933 93.7497C164.749 94.3896 164.954 94.4089 165.096 94.0081C165.237 93.6072 165.049 93.4616 163.754 92.9254C162.937 92.611 162.017 92.2869 161.733 92.2662Z" fill="#2A5674"/>
<path d="M170.031 103.701C168.917 103.626 166.783 104.491 165.754 105.454C164.541 106.564 163.577 109.3 163.818 110.949C164.153 113.082 165.967 115.232 168.089 115.98C170.094 116.687 172.889 115.975 174.482 114.389C176.76 112.064 176.898 108.136 174.756 105.79C174.019 104.947 173.542 104.646 172.331 104.246C171.505 103.955 170.45 103.716 170.031 103.701ZM173.986 106.844C174.39 107.278 174.889 108.196 175.098 108.88C175.807 111.383 173.929 114.38 171.237 115.022C170.11 115.287 169.723 115.257 168.718 114.797C167.242 114.171 166.174 112.84 165.768 111.133C165.493 110.108 165.54 109.674 166.005 108.353C166.471 107.032 166.706 106.665 167.571 106.015C169.454 104.584 172.192 104.94 173.986 106.844Z" fill="#2A5674"/>
<path d="M304.394 149.514C303.856 150.179 303.352 150.858 303.248 151.025C303.019 151.432 303.088 152.137 303.394 152.597C303.787 153.165 310.339 159.19 312.402 160.879C314.414 162.523 314.863 162.774 315.734 162.64C316.55 162.532 316.789 162.319 319.81 159.05L322.656 155.976L323.015 156.07C323.441 156.192 323.509 156.116 323.697 155.397L323.837 154.834L324.313 154.68C324.733 154.537 324.798 154.55 324.988 154.798C325.706 155.736 325.723 155.751 326.029 155.598C326.571 155.32 327.198 154.675 327.391 154.205C327.555 153.802 327.543 153.73 327.239 153.302C326.762 152.658 326.944 152.439 327.876 152.528L328.58 152.596L328.743 152.16C329.164 150.961 328.98 150.366 328.126 150.072C327.658 149.911 327.616 149.873 327.544 149.563C327.475 149.333 327.508 149.194 327.656 149.098C328.512 148.505 328.526 148.472 328.301 148.024C327.858 147.104 327.661 146.881 327.254 146.805C327.01 146.754 326.732 146.825 326.458 146.992C326.091 147.213 326.002 147.209 325.799 147.026C325.613 146.859 325.571 146.668 325.618 146.174C325.64 145.826 325.605 145.473 325.521 145.397C325.385 145.275 324.783 145.161 323.917 145.102C323.643 145.084 323.635 145.092 323.384 145.694C323.133 146.279 323.11 146.305 322.813 146.328C322.573 146.357 322.398 146.261 321.984 145.888C321.646 145.583 321.379 145.42 321.268 145.442C321.004 145.48 319.884 146.263 319.806 146.469C319.778 146.551 319.875 146.868 320.036 147.166C320.305 147.684 320.308 147.748 320.074 148.059L319.825 148.386L316.696 145.568C313.263 142.475 312.827 142.159 312.028 142.144C311.085 142.137 310.823 142.36 307.94 145.493C306.521 147.034 304.923 148.842 304.394 149.514ZM311.081 142.992C311.746 142.61 312.061 142.771 313.888 144.417C314.75 145.194 316.089 146.445 316.862 147.203L318.28 148.572L318.206 149.164C318.166 149.48 318.101 149.774 318.07 149.808C318.047 149.833 317.432 149.309 316.711 148.629L315.414 147.4L313.928 149.049L312.443 150.698L313.838 151.955L315.234 153.212L316.592 151.755L317.951 150.297L318.599 150.513L319.255 150.737L319.459 151.242L319.671 151.755L319.029 152.111C318.638 152.341 318.39 152.531 318.395 152.628C318.402 152.772 319.222 154.124 319.4 154.284C319.451 154.33 319.705 154.268 319.981 154.149L320.462 153.938L319.563 154.936L318.673 155.942L317.537 154.873L316.401 153.804L317.398 152.68C317.947 152.071 318.401 151.515 318.39 151.459C318.387 151.395 318.31 151.31 318.203 151.276C318.055 151.219 317.871 151.39 316.89 152.513L315.757 153.821L315.93 154.054C316.026 154.186 316.687 154.812 317.405 155.428L318.721 156.568L319.925 155.232C320.961 154.081 321.161 153.894 321.317 153.958C321.613 154.072 321.624 154.111 321.554 154.784L321.475 155.433L318.514 158.618C316.561 160.735 315.467 161.848 315.293 161.905C314.692 162.13 314.567 162.048 311.582 159.528C309.601 157.866 308.02 156.442 306.245 154.721C303.513 152.091 303.417 151.959 303.66 151.35C303.987 150.511 310.228 143.479 311.081 142.992ZM316.466 149.037L317.566 150.027L316.423 151.296L315.28 152.565L314.189 151.582L313.098 150.599L314.233 149.323L315.367 148.047L316.466 149.037ZM320.895 146.178L321.339 145.889L321.799 146.365C322.251 146.833 322.284 146.847 322.87 146.809L323.473 146.769L323.687 146.242C323.816 145.945 323.932 145.681 323.962 145.648C323.993 145.614 324.275 145.623 324.575 145.664L325.136 145.755L325.104 146.063C325.008 146.85 325.028 146.914 325.523 147.452L326.01 147.983L326.625 147.709C326.963 147.554 327.288 147.448 327.345 147.454C327.401 147.459 327.548 147.636 327.655 147.84C327.867 148.2 327.86 148.208 327.418 148.699L326.968 149.198L327.108 149.86L327.255 150.529L327.817 150.79C328.139 150.926 328.42 151.073 328.446 151.095C328.479 151.126 328.443 151.353 328.376 151.615L328.248 152.097L327.624 152.025L327.007 151.944L326.522 152.534L326.037 153.123L326.417 153.772L326.798 154.421L326.426 154.715C325.924 155.12 325.85 155.1 325.425 154.533C324.993 153.96 324.887 153.941 324.041 154.251L323.487 154.457L323.291 155.016L323.094 155.574L322.546 155.417C322.252 155.336 322.005 155.252 322.012 155.227C322.019 155.203 322.043 154.887 322.056 154.516C322.106 153.78 322.183 153.864 321.021 153.216C320.855 153.128 320.656 153.179 320.234 153.426C319.679 153.753 319.646 153.755 319.454 153.475C318.951 152.776 318.948 152.728 319.434 152.461C320.202 152.05 320.237 151.943 319.926 151.081L319.644 150.306L319.144 150.147L318.635 149.98L318.662 149.559C318.696 148.977 318.774 148.925 319.296 149.042C319.532 149.103 319.775 149.122 319.838 149.087C319.893 149.06 320.175 148.747 320.446 148.394L320.954 147.763L320.626 147.208C320.441 146.903 320.337 146.611 320.375 146.568C320.421 146.517 320.654 146.344 320.895 146.178Z" fill="#2A5674"/>
<path d="M304.882 151.762C304.897 151.898 305.28 152.289 306.057 152.958L307.213 153.953L310.504 150.453C312.312 148.513 313.83 146.862 313.857 146.764C313.914 146.615 313.743 146.431 312.662 145.488L311.388 144.386L308.117 147.966C305.396 150.953 304.857 151.586 304.882 151.762ZM312.352 145.867L313.282 146.705L312.772 147.272C312.482 147.593 311.124 149.066 309.752 150.572L307.26 153.306L306.346 152.483L305.441 151.668L308.435 148.344L311.421 145.029L312.352 145.867Z" fill="#2A5674"/>
<path d="M308.42 155.01C308.431 155.219 311.142 157.584 311.351 157.573C311.624 157.559 314.443 154.43 314.336 154.242C314.308 154.171 313.655 153.536 312.893 152.834L311.52 151.552L309.963 153.229C309.117 154.152 308.425 154.954 308.42 155.01ZM311.548 152.236C311.605 152.257 312.113 152.714 312.689 153.264L313.749 154.265L312.546 155.601L311.342 156.937L310.222 156.02C309.607 155.513 309.092 155.064 309.073 155.001C309.034 154.874 311.433 152.193 311.548 152.236Z" fill="#2A5674"/>
<path d="M310.428 154.261C310.473 154.347 310.592 154.47 310.692 154.529C310.834 154.626 310.823 154.724 310.651 154.983C310.48 155.241 310.469 155.355 310.596 155.469C310.732 155.591 310.819 155.562 311.032 155.325C311.276 155.055 311.324 155.052 311.601 155.255C312.012 155.564 312.222 155.263 311.863 154.879C311.632 154.625 311.638 154.584 311.91 154.232C312.114 153.971 312.162 153.816 312.078 153.739C311.993 153.663 311.843 153.727 311.605 153.958C311.283 154.264 311.243 154.275 310.967 154.071C310.656 153.838 310.284 153.962 310.428 154.261Z" fill="#2A5674"/>
<path d="M311.888 158.134C311.891 158.198 312.537 158.825 313.315 159.526L314.727 160.798L315.251 160.336C315.536 160.087 316.222 159.326 316.767 158.653L317.759 157.432L317.119 156.748C316.77 156.388 316.125 155.777 315.695 155.42L314.911 154.76L313.393 156.395C312.569 157.292 311.893 158.077 311.888 158.134ZM314.963 155.434C315.028 155.447 315.528 155.913 316.097 156.471L317.125 157.49L315.914 158.834L314.71 160.171L313.628 159.195C313.027 158.655 312.534 158.165 312.539 158.108C312.523 157.956 314.832 155.409 314.963 155.434Z" fill="#2A5674"/>
<path d="M314.426 157.203L314.457 157.629L314.088 157.664C313.374 157.726 313.389 158.168 314.097 158.147L314.556 158.131L314.586 158.557C314.632 158.982 314.828 159.189 315.004 158.994C315.057 158.935 315.086 158.716 315.066 158.5L315.039 158.122L315.39 158.056C315.582 158.029 315.795 157.946 315.848 157.887C316.008 157.709 315.657 157.453 315.38 157.556C315.063 157.67 314.953 157.554 314.913 157.105C314.88 156.785 314.854 156.746 314.645 156.757C314.436 156.767 314.406 156.817 314.426 157.203Z" fill="#2A5674"/>
<path d="M314.545 150.83C314.479 150.954 314.453 151.068 314.487 151.099C314.536 151.129 314.596 151.182 314.646 151.228C314.697 151.273 314.998 151.008 315.379 150.585C315.965 149.934 316.009 149.851 315.865 149.721C315.722 149.592 315.628 149.645 315.176 150.096C314.901 150.384 314.603 150.714 314.545 150.83Z" fill="#2A5674"/>
<path d="M320.802 149.343C320.576 149.798 320.566 150.846 320.791 151.447C321.046 152.151 322.027 153.034 322.762 153.222C323.717 153.454 324.938 153.068 325.623 152.307C326.271 151.588 326.461 150.288 326.073 149.341C325.494 147.977 323.867 147.232 322.507 147.722C322.024 147.885 321.814 148.033 321.434 148.471C321.167 148.767 320.882 149.169 320.802 149.343ZM322.815 148.23C323.068 148.136 323.541 148.087 323.865 148.119C325.041 148.259 325.972 149.572 325.771 150.816C325.686 151.336 325.605 151.494 325.236 151.835C324.715 152.346 323.968 152.562 323.18 152.434C322.701 152.371 322.527 152.275 322.053 151.848C321.58 151.422 321.466 151.258 321.345 150.781C321.073 149.74 321.701 148.651 322.815 148.23Z" fill="#2A5674"/>
<path d="M255.705 136.662C255.043 137.067 253.976 141.151 254.455 141.629C255.08 142.255 255.816 141.335 256.331 139.127C256.809 137.067 256.588 136.11 255.705 136.662Z" fill="#2A5674"/>
<path d="M259.311 140.378C257.508 142.034 257.104 142.991 258.281 142.991C259.054 142.991 262.586 139.9 262.586 139.201C262.586 138.097 261.372 138.539 259.311 140.378Z" fill="#2A5674"/>
<path d="M218.435 145.235C217.552 146.743 216.779 148.031 216.706 148.141C216.632 148.215 215.712 147.332 214.645 146.191C213.284 144.683 212.364 144.021 211.481 143.837L210.267 143.616L210.524 167.972L210.819 192.292H207.25C203.35 192.292 203.46 192.182 203.681 195.052C203.902 197.701 206.882 200.975 209.899 201.858C212.658 202.667 220.311 203.035 232.232 202.851C245.808 202.667 247.28 202.447 250.702 200.202C253.13 198.584 254.675 196.008 255.19 192.697C256.11 186.92 256.625 164.845 256.11 151.784C255.852 145.787 255.852 145.713 254.785 144.462L253.755 143.211L251.143 145.75L248.568 148.325L247.574 147.222C247.022 146.596 246.176 145.603 245.661 144.977C245.146 144.352 244.153 143.579 243.453 143.211L242.166 142.586L239.406 145.603L236.647 148.62L234.991 146.559C232.968 144.058 231.165 143.211 230.245 144.352C229.914 144.72 229.068 145.787 228.295 146.67L226.971 148.289L225.904 147.001C223.512 144.094 222.261 142.991 221.157 142.77C220.017 142.549 219.943 142.623 218.435 145.235ZM223.402 147.774C225.609 150.275 227.228 151.416 227.265 150.423C227.265 150.275 228.185 149.172 229.252 147.958L231.238 145.75L233.336 148.068C236.5 151.563 236.316 151.563 239.443 148.031C240.915 146.375 242.203 145.014 242.35 145.014C242.46 145.014 243.674 146.265 245.072 147.774C246.47 149.282 247.832 150.57 248.089 150.643C248.347 150.717 249.451 149.834 250.481 148.73C251.548 147.59 252.541 146.67 252.688 146.67C253.093 146.67 253.056 188.613 252.688 191.63C252.394 194.168 251.18 195.64 248.715 196.56C247.39 197.075 246.838 197.112 245.698 196.781C244.447 196.376 241.614 194.021 241.614 193.396C241.614 193.249 241.062 192.881 240.437 192.623C239.48 192.219 236.389 192.108 225.94 192.108H212.622L212.401 181.806C212.291 176.14 212.107 165.875 211.996 158.995L211.775 146.486L213.946 148.767C215.124 150.055 216.264 151.085 216.485 151.085C216.742 151.085 217.699 149.687 218.692 147.958C219.649 146.228 220.532 144.83 220.642 144.83C220.753 144.83 222.004 146.155 223.402 147.774ZM234.513 193.69L238.634 193.764L239.333 195.383C240.216 197.296 241.908 198.657 244.373 199.393L246.213 199.908L244.189 200.313C238.266 201.527 217.552 201.784 212.07 200.718C208.391 200.055 205.741 197.848 205.3 195.125L205.079 193.764L214.608 193.69C223.806 193.58 225.536 193.58 234.513 193.69Z" fill="#2A5674"/>
<path d="M218.251 182.726C217.662 183.719 218.84 183.83 228.957 183.83C238.781 183.83 239.443 183.793 239.333 183.168C239.222 182.579 238.376 182.542 228.847 182.432C222.114 182.395 218.398 182.468 218.251 182.726Z" fill="#2A5674"/>
<path d="M219.722 188.613C219.207 189.459 220.127 189.716 223.622 189.716C227.007 189.716 227.265 189.68 227.265 188.981C227.265 188.281 227.007 188.245 223.622 188.245C221.562 188.245 219.832 188.392 219.722 188.613Z" fill="#2A5674"/>
<path d="M258.612 146.191C258.759 147.001 261.739 147.589 262.475 146.964C263.358 146.265 262.291 145.566 260.304 145.566C258.796 145.566 258.501 145.676 258.612 146.191Z" fill="#2A5674"/>
<path d="M29.6809 110.114C29.4518 110.254 29.0827 111.667 29.2482 111.833C29.4645 112.049 29.7191 111.731 29.8973 110.967C30.0628 110.254 29.9864 109.923 29.6809 110.114Z" fill="#2A5674"/>
<path d="M30.9284 111.4C30.3047 111.973 30.1647 112.304 30.572 112.304C30.8393 112.304 32.0612 111.234 32.0612 110.993C32.0612 110.611 31.6412 110.763 30.9284 111.4Z" fill="#2A5674"/>
<path d="M16.7867 113.08C16.4813 113.602 16.214 114.047 16.1885 114.086C16.163 114.111 15.8448 113.806 15.4757 113.411C15.0047 112.889 14.6865 112.66 14.381 112.596L13.961 112.52L14.0501 120.946L14.1519 129.36H12.9172C11.568 129.36 11.6062 129.322 11.6825 130.315C11.7589 131.231 12.7899 132.364 13.8337 132.669C14.7883 132.949 17.4359 133.077 21.56 133.013C26.2569 132.949 26.766 132.873 27.9498 132.097C28.7899 131.537 29.3245 130.646 29.5027 129.5C29.8209 127.502 29.9991 119.864 29.8209 115.346C29.7318 113.271 29.7318 113.246 29.3627 112.813L29.0063 112.38L28.1025 113.258L27.2115 114.149L26.8679 113.767C26.6769 113.551 26.3842 113.207 26.206 112.991C26.0278 112.775 25.6841 112.507 25.4422 112.38L24.9967 112.164L24.0421 113.207L23.0874 114.251L22.5146 113.538C21.8146 112.673 21.1909 112.38 20.8727 112.775C20.7581 112.902 20.4653 113.271 20.198 113.576L19.7398 114.137L19.3707 113.691C18.5433 112.685 18.1105 112.304 17.7287 112.227C17.3341 112.151 17.3086 112.176 16.7867 113.08ZM18.5051 113.958C19.2688 114.824 19.8289 115.218 19.8416 114.875C19.8416 114.824 20.1598 114.442 20.529 114.022L21.2163 113.258L21.9419 114.06C23.0365 115.269 22.9729 115.269 24.0548 114.047C24.564 113.475 25.0095 113.004 25.0604 113.004C25.0986 113.004 25.5186 113.436 26.0023 113.958C26.486 114.48 26.957 114.926 27.0461 114.951C27.1352 114.977 27.517 114.671 27.8734 114.289C28.2426 113.895 28.5862 113.576 28.6371 113.576C28.7772 113.576 28.7644 128.087 28.6371 129.131C28.5353 130.009 28.1153 130.518 27.2624 130.837C26.8042 131.015 26.6133 131.027 26.2187 130.913C25.7859 130.773 24.8058 129.958 24.8058 129.742C24.8058 129.691 24.6149 129.564 24.3985 129.475C24.0675 129.335 22.9983 129.296 19.3834 129.296H14.7756L14.6992 125.732C14.6611 123.772 14.5974 120.221 14.5592 117.841L14.4829 113.513L15.2338 114.302C15.6412 114.747 16.0358 115.104 16.1121 115.104C16.2012 115.104 16.5322 114.62 16.8758 114.022C17.2068 113.424 17.5123 112.94 17.5505 112.94C17.5887 112.94 18.0214 113.398 18.5051 113.958ZM22.3492 129.844L23.7748 129.869L24.0166 130.429C24.3221 131.091 24.9076 131.562 25.7605 131.817L26.3969 131.995L25.6968 132.135C23.6475 132.555 16.4813 132.644 14.5847 132.275C13.3118 132.046 12.3954 131.282 12.2426 130.34L12.1662 129.869L15.463 129.844C18.6451 129.806 19.2434 129.806 22.3492 129.844Z" fill="#2A5674"/>
<path d="M21.84 115.448C21.8145 115.498 21.7509 115.753 21.6999 116.008C21.6236 116.453 21.5981 116.466 20.9235 116.555C20.5416 116.593 19.9307 116.746 19.5743 116.886C19.2178 117.039 18.9124 117.128 18.8996 117.115C18.8869 117.09 18.8233 116.911 18.7596 116.708C18.5941 116.237 18.2505 116.008 18.0468 116.211C17.9323 116.326 17.9323 116.402 18.0468 116.555C18.2377 116.784 18.4541 117.522 18.3268 117.522C17.8941 117.522 16.0229 119.737 16.0229 120.259C16.0229 120.539 16.9903 121.557 17.7031 122.028C18.0341 122.245 18.0341 122.257 17.8559 122.69C17.754 122.932 17.7031 123.187 17.7413 123.25C17.8941 123.492 18.1614 123.377 18.3141 122.996C18.4923 122.55 18.4923 122.55 19.2178 122.817C19.5233 122.919 20.1216 123.085 20.5416 123.174L21.3054 123.327V123.899C21.3054 124.37 21.3435 124.459 21.5599 124.459C21.7763 124.459 21.8145 124.358 21.8527 123.874L21.8909 123.276L22.68 123.123C23.1128 123.047 23.6602 122.894 23.8893 122.805C24.1948 122.665 24.2966 122.665 24.2966 122.779C24.2966 122.868 24.3857 123.072 24.5002 123.225C24.653 123.454 24.7421 123.479 24.8694 123.377C25.0094 123.263 25.0094 123.148 24.9076 122.843C24.7676 122.461 24.793 122.423 25.2003 122.117C25.9386 121.57 26.9696 120.463 26.9696 120.221C26.9696 119.953 26.3204 118.884 25.8622 118.388L25.544 118.044L25.8749 117.382C26.0531 117.013 26.2059 116.606 26.2059 116.479C26.2059 116.135 25.7349 116.186 25.6458 116.529C25.6076 116.695 25.4549 117.013 25.3149 117.242L25.0603 117.65L24.3984 117.28C24.0293 117.064 23.4056 116.822 23.0237 116.72C22.3236 116.542 22.3236 116.542 22.26 115.995C22.1964 115.486 21.98 115.206 21.84 115.448ZM22.4637 117.637C23.9147 118.299 24.322 120.323 23.2528 121.545C22.7182 122.156 22.2727 122.359 21.4581 122.359C18.8742 122.359 18.1614 118.732 20.5416 117.637C21.1908 117.331 21.8018 117.331 22.4637 117.637ZM24.5384 118.006C25.2131 118.451 26.1168 119.457 26.2695 119.941C26.4223 120.424 25.4167 121.417 24.0802 122.092C23.291 122.486 23.1892 122.423 23.6983 121.863C24.6784 120.768 24.6784 119.05 23.6856 117.891C23.2656 117.395 23.2528 117.37 23.5456 117.459C23.7111 117.51 24.1566 117.764 24.5384 118.006ZM19.2942 117.866C18.3268 118.897 18.3141 120.666 19.2815 121.939C19.4597 122.168 19.5615 122.359 19.5106 122.359C19.4724 122.359 19.1033 122.181 18.7087 121.977C17.8177 121.494 16.6594 120.501 16.6594 120.221C16.6594 119.839 17.754 118.591 18.5687 118.057C19.4851 117.446 19.7779 117.37 19.2942 117.866Z" fill="#2A5674"/>
<path d="M21.0381 118.464C19.7653 119.024 19.7653 120.794 21.0509 121.214C22.2601 121.608 23.3548 120.348 22.8583 119.139C22.6547 118.681 22.0946 118.286 21.6619 118.286C21.5346 118.299 21.2545 118.375 21.0381 118.464Z" fill="#2A5674"/>
<path d="M16.7231 126.051C16.5195 126.394 16.9268 126.432 20.4272 126.432C23.8257 126.432 24.0548 126.42 24.0167 126.203C23.9785 126 23.6857 125.987 20.389 125.949C18.0596 125.936 16.774 125.961 16.7231 126.051Z" fill="#2A5674"/>
<path d="M17.2321 128.087C17.0539 128.38 17.3721 128.469 18.5813 128.469C19.7524 128.469 19.8415 128.456 19.8415 128.214C19.8415 127.972 19.7524 127.96 18.5813 127.96C17.8685 127.96 17.2703 128.011 17.2321 128.087Z" fill="#2A5674"/>
<path d="M30.6864 113.411C30.7373 113.691 31.7683 113.895 32.0229 113.678C32.3284 113.436 31.9593 113.195 31.2719 113.195C30.75 113.195 30.6482 113.233 30.6864 113.411Z" fill="#2A5674"/>
</g>
<defs>
<clipPath id="clip0_260_317">
<rect width="366" height="210" fill="white"/>
</clipPath>
</defs>
</svg>
